<svg xmlns="http://www.w3.org/2000/svg" xmlns:xlink="http://www.w3.org/1999/xlink" width="40" zoomAndPan="magnify" viewBox="0 0 30 30.000001" height="40" preserveAspectRatio="xMidYMid meet" version="1.0"><defs><clipPath id="f39ef650f0"><path d="M 0.484375 0 L 29.515625 0 L 29.515625 29.03125 L 0.484375 29.03125 Z M 0.484375 0 " clip-rule="nonzero"/></clipPath><clipPath id="f75b060779"><path d="M 4.410156 13.664062 L 0.738281 17.332031 L 1.953125 18.53125 L 5.113281 15.371094 L 8.167969 15.371094 L 8.167969 19.28125 L 4.753906 22.695312 L 4.753906 29.03125 L 6.460938 29.03125 L 6.460938 23.414062 L 8.425781 21.449219 C 8.578125 22.230469 8.855469 22.964844 9.25 23.65625 C 9.644531 24.347656 10.136719 24.957031 10.730469 25.488281 C 11.324219 26.015625 11.984375 26.4375 12.714844 26.753906 C 13.445312 27.066406 14.207031 27.257812 15 27.324219 C 15.792969 27.257812 16.554688 27.070312 17.285156 26.757812 C 18.015625 26.441406 18.679688 26.019531 19.273438 25.488281 C 19.867188 24.960938 20.359375 24.347656 20.753906 23.65625 C 21.148438 22.964844 21.421875 22.230469 21.574219 21.449219 L 23.539062 23.414062 L 23.539062 29.03125 L 25.246094 29.03125 L 25.246094 22.695312 L 21.832031 19.28125 L 21.832031 15.371094 L 24.90625 15.371094 L 28.066406 18.53125 L 29.277344 17.332031 L 25.605469 13.664062 L 21.832031 13.664062 L 21.832031 10.65625 L 26.101562 7.242188 L 26.101562 2.5625 L 24.394531 2.5625 L 24.394531 6.421875 L 21.625 8.640625 C 21.242188 7.058594 20.398438 5.777344 19.097656 4.800781 L 20.125 3.773438 L 20.125 0 L 18.414062 0 L 18.414062 3.058594 L 17.5625 3.929688 C 16.742188 3.589844 15.886719 3.417969 15 3.414062 C 14.117188 3.417969 13.269531 3.589844 12.457031 3.929688 L 11.585938 3.058594 L 11.585938 0 L 9.875 0 L 9.875 3.773438 L 10.917969 4.800781 C 9.617188 5.777344 8.777344 7.058594 8.390625 8.640625 L 5.605469 6.421875 L 5.605469 2.5625 L 3.898438 2.5625 L 3.898438 7.242188 L 8.167969 10.65625 L 8.167969 13.664062 Z M 9.875 19.640625 L 9.875 14.089844 C 9.875 13.804688 9.929688 13.535156 10.039062 13.273438 C 10.148438 13.011719 10.300781 12.78125 10.5 12.578125 C 10.703125 12.378906 10.933594 12.226562 11.195312 12.117188 C 11.457031 12.007812 11.726562 11.953125 12.011719 11.953125 C 12.292969 11.953125 12.566406 12.007812 12.828125 12.117188 C 13.089844 12.226562 13.320312 12.378906 13.519531 12.578125 C 13.722656 12.78125 13.875 13.011719 13.984375 13.273438 C 14.09375 13.535156 14.144531 13.804688 14.144531 14.089844 L 14.144531 25.496094 C 13.527344 25.292969 12.957031 25.003906 12.429688 24.621094 C 11.902344 24.238281 11.449219 23.78125 11.066406 23.257812 C 10.683594 22.730469 10.390625 22.160156 10.1875 21.542969 C 9.984375 20.925781 9.878906 20.289062 9.875 19.640625 Z M 20.125 19.640625 C 20.121094 20.289062 20.015625 20.925781 19.8125 21.542969 C 19.609375 22.160156 19.316406 22.730469 18.933594 23.257812 C 18.550781 23.78125 18.097656 24.238281 17.570312 24.621094 C 17.042969 25.003906 16.472656 25.292969 15.855469 25.496094 L 15.855469 14.089844 C 15.855469 13.804688 15.90625 13.535156 16.015625 13.273438 C 16.125 13.011719 16.277344 12.78125 16.480469 12.578125 C 16.679688 12.378906 16.910156 12.226562 17.171875 12.117188 C 17.433594 12.007812 17.707031 11.953125 17.988281 11.953125 C 18.273438 11.953125 18.542969 12.007812 18.804688 12.117188 C 19.066406 12.226562 19.296875 12.378906 19.5 12.578125 C 19.699219 12.78125 19.851562 13.011719 19.960938 13.273438 C 20.070312 13.535156 20.125 13.804688 20.125 14.089844 Z M 15 5.125 C 15.335938 5.125 15.667969 5.15625 16 5.222656 C 16.328125 5.289062 16.648438 5.382812 16.960938 5.511719 C 17.269531 5.640625 17.566406 5.800781 17.847656 5.988281 C 18.125 6.171875 18.386719 6.386719 18.621094 6.625 C 18.859375 6.863281 19.074219 7.121094 19.261719 7.398438 C 19.445312 7.679688 19.605469 7.976562 19.734375 8.285156 C 19.863281 8.597656 19.960938 8.917969 20.023438 9.246094 C 20.089844 9.578125 20.125 9.910156 20.125 10.246094 L 20.125 10.894531 C 19.480469 10.457031 18.765625 10.242188 17.988281 10.246094 C 17.40625 10.25 16.855469 10.378906 16.332031 10.632812 C 15.804688 10.890625 15.363281 11.242188 15 11.699219 C 14.703125 11.320312 14.347656 11.007812 13.929688 10.765625 C 13.515625 10.523438 13.070312 10.363281 12.597656 10.289062 C 12.121094 10.214844 11.648438 10.230469 11.179688 10.335938 C 10.710938 10.441406 10.277344 10.625 9.875 10.894531 L 9.875 10.246094 C 9.875 9.910156 9.910156 9.578125 9.976562 9.246094 C 10.039062 8.917969 10.136719 8.597656 10.265625 8.285156 C 10.394531 7.976562 10.554688 7.679688 10.738281 7.398438 C 10.925781 7.121094 11.140625 6.863281 11.378906 6.625 C 11.613281 6.386719 11.875 6.171875 12.152344 5.988281 C 12.433594 5.800781 12.730469 5.640625 13.039062 5.511719 C 13.351562 5.382812 13.671875 5.289062 14 5.222656 C 14.332031 5.15625 14.664062 5.125 15 5.125 Z M 15 5.125 " clip-rule="nonzero"/></clipPath></defs><g clip-path="url(#f39ef650f0)"><g clip-path="url(#f75b060779)"><path fill="#bd0000" d="M 0.738281 0 L 0.738281 29.03125 L 29.277344 29.03125 L 29.277344 0 Z M 0.738281 0 " fill-opacity="1" fill-rule="nonzero"/></g></g></svg>