<svg xmlns="http://www.w3.org/2000/svg" xmlns:xlink="http://www.w3.org/1999/xlink" width="40" zoomAndPan="magnify" viewBox="0 0 30 30.000001" height="40" preserveAspectRatio="xMidYMid meet" version="1.0"><defs><clipPath id="ac3969dcdf"><path d="M 0.9375 0 L 29.242188 0 L 29.242188 29 L 0.9375 29 Z M 0.9375 0 " clip-rule="nonzero"/></clipPath></defs><g clip-path="url(#ac3969dcdf)"><path fill="#bd0000" d="M 29.257812 13.925781 L 15.734375 0.492188 C 15.382812 0.140625 14.8125 0.140625 14.460938 0.492188 L 0.9375 13.925781 L 2.210938 15.195312 L 4.277344 13.140625 L 4.277344 27.996094 C 4.277344 28.492188 4.683594 28.890625 5.179688 28.890625 L 25.011719 28.890625 C 25.511719 28.890625 25.914062 28.492188 25.914062 27.996094 L 25.914062 13.140625 L 27.980469 15.195312 Z M 11.492188 27.101562 L 11.492188 18.144531 L 18.703125 18.144531 L 18.703125 27.101562 Z M 24.113281 27.101562 L 20.507812 27.101562 L 20.507812 17.246094 C 20.507812 16.753906 20.101562 16.351562 19.605469 16.351562 L 10.589844 16.351562 C 10.09375 16.351562 9.6875 16.753906 9.6875 17.246094 L 9.6875 27.101562 L 6.082031 27.101562 L 6.082031 11.347656 L 15.097656 2.390625 L 24.113281 11.347656 Z M 24.113281 27.101562 " fill-opacity="1" fill-rule="nonzero"/></g></svg>