<svg xmlns="http://www.w3.org/2000/svg" xmlns:xlink="http://www.w3.org/1999/xlink" width="40" zoomAndPan="magnify" viewBox="0 0 30 30.000001" height="40" preserveAspectRatio="xMidYMid meet" version="1.0"><defs><clipPath id="4aa70f1c2d"><path d="M 0.484375 3.628906 L 29.515625 3.628906 L 29.515625 25.402344 L 0.484375 25.402344 Z M 0.484375 3.628906 " clip-rule="nonzero"/></clipPath></defs><g clip-path="url(#4aa70f1c2d)"><path fill="#bd0000" d="M 28.609375 3.628906 L 1.390625 3.628906 C 0.890625 3.628906 0.484375 4.035156 0.484375 4.535156 L 0.484375 24.496094 C 0.484375 24.996094 0.890625 25.402344 1.390625 25.402344 L 28.609375 25.402344 C 29.109375 25.402344 29.515625 24.996094 29.515625 24.496094 L 29.515625 4.535156 C 29.515625 4.035156 29.109375 3.628906 28.609375 3.628906 Z M 15 16.863281 L 3.582031 5.445312 L 26.417969 5.445312 Z M 10.089844 14.515625 L 2.296875 22.304688 L 2.296875 6.726562 Z M 11.371094 15.800781 L 14.359375 18.785156 C 14.535156 18.964844 14.769531 19.050781 15 19.050781 C 15.230469 19.050781 15.464844 18.964844 15.640625 18.785156 L 18.628906 15.800781 L 26.417969 23.589844 L 3.582031 23.589844 Z M 19.910156 14.515625 L 27.703125 6.726562 L 27.703125 22.304688 Z M 19.910156 14.515625 " fill-opacity="1" fill-rule="nonzero"/></g></svg>