<svg xmlns="http://www.w3.org/2000/svg" xmlns:xlink="http://www.w3.org/1999/xlink" width="40" zoomAndPan="magnify" viewBox="0 0 30 30.000001" height="40" preserveAspectRatio="xMidYMid meet" version="1.0"><defs><clipPath id="52be7d66b8"><path d="M 0.484375 0 L 29.515625 0 L 29.515625 29.03125 L 0.484375 29.03125 Z M 0.484375 0 " clip-rule="nonzero"/></clipPath></defs><g clip-path="url(#52be7d66b8)"><path fill="#bd0000" d="M 15 0 C 6.996094 0 0.484375 6.511719 0.484375 14.515625 C 0.484375 22.519531 6.996094 29.03125 15 29.03125 C 23.003906 29.03125 29.515625 22.519531 29.515625 14.515625 C 29.515625 6.511719 23.003906 0 15 0 Z M 6.847656 24.242188 C 6.984375 19.859375 10.582031 16.332031 15 16.332031 C 19.417969 16.332031 23.015625 19.859375 23.152344 24.242188 C 20.945312 26.097656 18.101562 27.21875 15 27.21875 C 11.898438 27.21875 9.054688 26.097656 6.847656 24.242188 Z M 10.464844 9.980469 C 10.464844 7.480469 12.5 5.445312 15 5.445312 C 17.5 5.445312 19.535156 7.480469 19.535156 9.980469 C 19.535156 12.480469 17.5 14.515625 15 14.515625 C 12.5 14.515625 10.464844 12.480469 10.464844 9.980469 Z M 24.792969 22.59375 C 24.136719 19.203125 21.757812 16.425781 18.605469 15.199219 C 20.261719 14.054688 21.351562 12.140625 21.351562 9.980469 C 21.351562 6.480469 18.5 3.628906 15 3.628906 C 11.5 3.628906 8.648438 6.480469 8.648438 9.980469 C 8.648438 12.140625 9.738281 14.054688 11.394531 15.199219 C 8.242188 16.429688 5.863281 19.203125 5.207031 22.597656 C 3.390625 20.398438 2.296875 17.582031 2.296875 14.515625 C 2.296875 7.511719 7.996094 1.816406 15 1.816406 C 22.003906 1.816406 27.703125 7.511719 27.703125 14.515625 C 27.703125 17.582031 26.609375 20.398438 24.792969 22.59375 Z M 24.792969 22.59375 " fill-opacity="1" fill-rule="nonzero"/></g></svg>