<svg xmlns="http://www.w3.org/2000/svg" xmlns:xlink="http://www.w3.org/1999/xlink" width="40" zoomAndPan="magnify" viewBox="0 0 30 30.000001" height="40" preserveAspectRatio="xMidYMid meet" version="1.0"><defs><clipPath id="a17d47cd58"><path d="M 0.484375 17 L 12 17 L 12 29.03125 L 0.484375 29.03125 Z M 0.484375 17 " clip-rule="nonzero"/></clipPath></defs><path fill="#bd0000" d="M 17.527344 23.183594 C 17.980469 23.183594 18.433594 23.15625 18.882812 23.101562 C 19.332031 23.046875 19.777344 22.960938 20.21875 22.851562 C 20.660156 22.742188 21.089844 22.605469 21.515625 22.441406 C 21.9375 22.277344 22.347656 22.089844 22.75 21.875 C 23.148438 21.664062 23.535156 21.425781 23.90625 21.164062 C 24.277344 20.902344 24.632812 20.621094 24.96875 20.316406 C 25.304688 20.011719 25.621094 19.6875 25.917969 19.34375 C 26.214844 19 26.488281 18.640625 26.742188 18.261719 C 26.992188 17.882812 27.222656 17.492188 27.425781 17.085938 C 27.628906 16.683594 27.808594 16.265625 27.960938 15.839844 C 28.113281 15.410156 28.238281 14.976562 28.339844 14.535156 C 28.4375 14.089844 28.511719 13.644531 28.554688 13.191406 C 28.597656 12.742188 28.617188 12.289062 28.605469 11.832031 C 28.59375 11.378906 28.554688 10.929688 28.488281 10.480469 C 28.421875 10.03125 28.328125 9.589844 28.207031 9.152344 C 28.085938 8.714844 27.9375 8.285156 27.765625 7.867188 C 27.589844 7.445312 27.390625 7.039062 27.167969 6.644531 C 26.945312 6.25 26.699219 5.871094 26.425781 5.503906 C 26.15625 5.140625 25.863281 4.792969 25.550781 4.464844 C 25.238281 4.136719 24.90625 3.828125 24.554688 3.542969 C 24.207031 3.253906 23.839844 2.988281 23.453125 2.746094 C 23.070312 2.503906 22.675781 2.285156 22.265625 2.089844 C 21.851562 1.898438 21.433594 1.730469 21 1.585938 C 20.570312 1.445312 20.132812 1.328125 19.6875 1.242188 C 19.242188 1.152344 18.792969 1.089844 18.339844 1.058594 C 17.886719 1.023438 17.433594 1.019531 16.980469 1.042969 C 16.527344 1.066406 16.078125 1.113281 15.632812 1.191406 C 15.183594 1.269531 14.742188 1.375 14.308594 1.507812 C 13.875 1.640625 13.449219 1.796875 13.035156 1.980469 C 12.621094 2.164062 12.21875 2.375 11.832031 2.609375 C 11.441406 2.84375 11.066406 3.097656 10.710938 3.378906 C 10.351562 3.65625 10.011719 3.957031 9.691406 4.277344 C 8.917969 5.054688 8.273438 5.921875 7.753906 6.890625 C 7.238281 7.855469 6.871094 8.875 6.660156 9.949219 C 6.445312 11.023438 6.390625 12.105469 6.5 13.195312 C 6.605469 14.285156 6.871094 15.339844 7.289062 16.351562 C 7.707031 17.363281 8.265625 18.292969 8.960938 19.136719 C 9.65625 19.984375 10.457031 20.710938 11.371094 21.320312 C 12.28125 21.929688 13.261719 22.390625 14.308594 22.707031 C 15.359375 23.027344 16.429688 23.183594 17.527344 23.183594 Z M 17.527344 3.46875 C 17.855469 3.46875 18.1875 3.488281 18.515625 3.523438 C 18.84375 3.5625 19.167969 3.617188 19.488281 3.691406 C 19.8125 3.765625 20.128906 3.859375 20.441406 3.96875 C 20.75 4.078125 21.054688 4.207031 21.351562 4.351562 C 21.648438 4.5 21.9375 4.660156 22.214844 4.839844 C 22.492188 5.019531 22.761719 5.210938 23.015625 5.421875 C 23.273438 5.628906 23.515625 5.851562 23.746094 6.089844 C 23.976562 6.328125 24.191406 6.578125 24.394531 6.839844 C 24.59375 7.101562 24.78125 7.375 24.949219 7.65625 C 25.121094 7.941406 25.273438 8.230469 25.410156 8.53125 C 25.546875 8.832031 25.667969 9.140625 25.769531 9.457031 C 25.871094 9.769531 25.953125 10.089844 26.019531 10.414062 C 26.085938 10.738281 26.128906 11.0625 26.15625 11.394531 C 26.1875 11.722656 26.195312 12.054688 26.183594 12.382812 C 26.171875 12.714844 26.144531 13.042969 26.097656 13.371094 C 26.046875 13.695312 25.980469 14.019531 25.894531 14.339844 C 25.8125 14.660156 25.707031 14.972656 25.585938 15.277344 C 25.464844 15.585938 25.328125 15.886719 25.171875 16.179688 C 25.015625 16.46875 24.84375 16.75 24.65625 17.023438 C 24.46875 17.296875 24.265625 17.554688 24.046875 17.804688 C 23.832031 18.054688 23.601562 18.289062 23.355469 18.511719 C 23.109375 18.734375 22.855469 18.941406 22.585938 19.132812 C 22.316406 19.324219 22.039062 19.503906 21.75 19.664062 C 21.460938 19.824219 21.164062 19.96875 20.859375 20.09375 C 20.554688 20.222656 20.242188 20.332031 19.921875 20.421875 C 19.605469 20.511719 19.285156 20.585938 18.957031 20.636719 C 18.632812 20.691406 18.304688 20.726562 17.972656 20.742188 C 17.644531 20.761719 17.3125 20.757812 16.984375 20.738281 C 16.652344 20.714844 16.328125 20.675781 16 20.617188 C 15.675781 20.554688 15.355469 20.480469 15.039062 20.382812 C 14.722656 20.289062 14.414062 20.171875 14.109375 20.042969 C 13.804688 19.910156 13.511719 19.761719 13.226562 19.597656 C 12.9375 19.433594 12.664062 19.25 12.398438 19.054688 C 12.132812 18.855469 11.878906 18.644531 11.636719 18.421875 C 11.394531 18.195312 11.167969 17.957031 10.953125 17.703125 C 10.742188 17.449219 10.542969 17.1875 10.359375 16.914062 C 10.175781 16.636719 10.007812 16.351562 9.855469 16.058594 C 9.707031 15.765625 9.570312 15.464844 9.457031 15.15625 C 9.339844 14.84375 9.242188 14.53125 9.160156 14.210938 C 9.082031 13.890625 9.019531 13.566406 8.976562 13.238281 C 8.933594 12.910156 8.910156 12.578125 8.902344 12.25 C 8.898438 11.917969 8.910156 11.589844 8.945312 11.261719 C 8.976562 10.929688 9.027344 10.605469 9.097656 10.28125 C 9.167969 9.960938 9.257812 9.640625 9.363281 9.328125 C 9.46875 9.015625 9.59375 8.710938 9.734375 8.410156 C 9.875 8.113281 10.035156 7.824219 10.210938 7.542969 C 10.382812 7.261719 10.574219 6.992188 10.78125 6.734375 C 10.984375 6.476562 11.207031 6.230469 11.4375 5.996094 C 12.246094 5.1875 13.175781 4.566406 14.230469 4.128906 C 15.285156 3.691406 16.382812 3.46875 17.527344 3.46875 Z M 17.527344 3.46875 " fill-opacity="1" fill-rule="nonzero"/><g clip-path="url(#a17d47cd58)"><path fill="#bd0000" d="M 1.824219 29.03125 C 2.160156 29.03125 2.445312 28.910156 2.679688 28.671875 L 11.414062 19.945312 C 11.53125 19.832031 11.617188 19.699219 11.679688 19.550781 C 11.742188 19.402344 11.773438 19.246094 11.773438 19.085938 C 11.773438 18.921875 11.742188 18.765625 11.679688 18.617188 C 11.617188 18.46875 11.53125 18.335938 11.414062 18.222656 C 11.300781 18.109375 11.167969 18.019531 11.019531 17.957031 C 10.871094 17.898438 10.714844 17.867188 10.554688 17.867188 C 10.390625 17.867188 10.238281 17.898438 10.085938 17.957031 C 9.9375 18.019531 9.808594 18.109375 9.691406 18.222656 L 0.964844 26.957031 C 0.792969 27.128906 0.679688 27.339844 0.632812 27.578125 C 0.585938 27.820312 0.609375 28.054688 0.703125 28.28125 C 0.796875 28.507812 0.945312 28.6875 1.148438 28.824219 C 1.351562 28.960938 1.578125 29.03125 1.824219 29.03125 Z M 1.824219 29.03125 " fill-opacity="1" fill-rule="nonzero"/></g></svg>