<svg xmlns="http://www.w3.org/2000/svg" xmlns:xlink="http://www.w3.org/1999/xlink" width="40" zoomAndPan="magnify" viewBox="0 0 30 30.000001" height="40" preserveAspectRatio="xMidYMid meet" version="1.0"><defs><clipPath id="1ab96a9722"><path d="M 0.484375 4.539062 L 29.515625 4.539062 L 29.515625 10 L 0.484375 10 Z M 0.484375 4.539062 " clip-rule="nonzero"/></clipPath><clipPath id="e54b4c2357"><path d="M 0.484375 18 L 29.515625 18 L 29.515625 24.136719 L 0.484375 24.136719 Z M 0.484375 18 " clip-rule="nonzero"/></clipPath><clipPath id="e948a9eb09"><path d="M 0.484375 11 L 29.515625 11 L 29.515625 18 L 0.484375 18 Z M 0.484375 11 " clip-rule="nonzero"/></clipPath></defs><g clip-path="url(#1ab96a9722)"><path fill="#bd0000" d="M 7.578125 6.320312 C 7.203125 5.285156 6.207031 4.539062 5.027344 4.539062 C 3.84375 4.539062 2.847656 5.285156 2.472656 6.320312 L 0.492188 6.320312 L 0.492188 8.101562 L 2.472656 8.101562 C 2.847656 9.136719 3.84375 9.882812 5.027344 9.882812 C 6.207031 9.882812 7.203125 9.136719 7.578125 8.101562 L 29.507812 8.101562 L 29.507812 6.320312 Z M 5.027344 8.101562 C 4.523438 8.101562 4.117188 7.703125 4.117188 7.210938 C 4.117188 6.722656 4.523438 6.320312 5.027344 6.320312 C 5.527344 6.320312 5.933594 6.722656 5.933594 7.210938 C 5.933594 7.703125 5.527344 8.101562 5.027344 8.101562 Z M 5.027344 8.101562 " fill-opacity="1" fill-rule="nonzero"/></g><g clip-path="url(#e54b4c2357)"><path fill="#bd0000" d="M 5.027344 18.792969 C 3.84375 18.792969 2.847656 19.539062 2.472656 20.574219 L 0.492188 20.574219 L 0.492188 22.355469 L 2.472656 22.355469 C 2.847656 23.390625 3.84375 24.136719 5.027344 24.136719 C 6.207031 24.136719 7.203125 23.390625 7.578125 22.355469 L 29.507812 22.355469 L 29.507812 20.574219 L 7.578125 20.574219 C 7.203125 19.539062 6.207031 18.792969 5.027344 18.792969 Z M 5.027344 22.355469 C 4.523438 22.355469 4.117188 21.953125 4.117188 21.464844 C 4.117188 20.972656 4.523438 20.574219 5.027344 20.574219 C 5.527344 20.574219 5.933594 20.972656 5.933594 21.464844 C 5.933594 21.953125 5.527344 22.355469 5.027344 22.355469 Z M 5.027344 22.355469 " fill-opacity="1" fill-rule="nonzero"/></g><g clip-path="url(#e948a9eb09)"><path fill="#bd0000" d="M 24.972656 11.664062 C 23.792969 11.664062 22.796875 12.414062 22.421875 13.445312 L 0.492188 13.445312 L 0.492188 15.230469 L 22.421875 15.230469 C 22.796875 16.261719 23.792969 17.011719 24.972656 17.011719 C 26.15625 17.011719 27.152344 16.261719 27.527344 15.230469 L 29.507812 15.230469 L 29.507812 13.445312 L 27.527344 13.445312 C 27.152344 12.414062 26.15625 11.664062 24.972656 11.664062 Z M 24.972656 15.230469 C 24.472656 15.230469 24.066406 14.828125 24.066406 14.339844 C 24.066406 13.847656 24.472656 13.445312 24.972656 13.445312 C 25.476562 13.445312 25.882812 13.847656 25.882812 14.339844 C 25.882812 14.828125 25.476562 15.230469 24.972656 15.230469 Z M 24.972656 15.230469 " fill-opacity="1" fill-rule="nonzero"/></g></svg>