<svg xmlns="http://www.w3.org/2000/svg" xmlns:xlink="http://www.w3.org/1999/xlink" width="40" zoomAndPan="magnify" viewBox="0 0 30 30.000001" height="40" preserveAspectRatio="xMidYMid meet" version="1.0"><defs><clipPath id="33020b7d07"><path d="M 10.808594 0 L 19.519531 0 L 19.519531 29.03125 L 10.808594 29.03125 Z M 10.808594 0 " clip-rule="nonzero"/></clipPath><clipPath id="4bc55961fa"><path d="M 21.441406 8 L 29.425781 8 L 29.425781 29.03125 L 21.441406 29.03125 Z M 21.441406 8 " clip-rule="nonzero"/></clipPath><clipPath id="b8c2bac99b"><path d="M 0.484375 18 L 8.46875 18 L 8.46875 29.03125 L 0.484375 29.03125 Z M 0.484375 18 " clip-rule="nonzero"/></clipPath></defs><g clip-path="url(#33020b7d07)"><path fill="#bd0000" d="M 18.066406 0 L 11.84375 0 C 11.273438 0 10.808594 0.464844 10.808594 1.035156 L 10.808594 27.996094 C 10.808594 28.566406 11.273438 29.03125 11.84375 29.03125 L 18.066406 29.03125 C 18.640625 29.03125 19.101562 28.566406 19.101562 27.996094 L 19.101562 1.035156 C 19.101562 0.464844 18.640625 0 18.066406 0 Z M 17.03125 26.957031 L 12.882812 26.957031 L 12.882812 2.074219 L 17.03125 2.074219 Z M 17.03125 26.957031 " fill-opacity="1" fill-rule="nonzero"/></g><g clip-path="url(#4bc55961fa)"><path fill="#bd0000" d="M 28.605469 8.296875 L 22.386719 8.296875 C 21.8125 8.296875 21.347656 8.757812 21.347656 9.332031 L 21.347656 27.996094 C 21.347656 28.566406 21.8125 29.03125 22.386719 29.03125 L 28.605469 29.03125 C 29.179688 29.03125 29.644531 28.566406 29.644531 27.996094 L 29.644531 9.332031 C 29.644531 8.757812 29.179688 8.296875 28.605469 8.296875 Z M 27.570312 26.957031 L 23.421875 26.957031 L 23.421875 10.367188 L 27.570312 10.367188 Z M 27.570312 26.957031 " fill-opacity="1" fill-rule="nonzero"/></g><g clip-path="url(#b8c2bac99b)"><path fill="#bd0000" d="M 7.660156 18.664062 L 1.4375 18.664062 C 0.863281 18.664062 0.402344 19.128906 0.402344 19.699219 L 0.402344 27.996094 C 0.402344 28.566406 0.863281 29.03125 1.4375 29.03125 L 7.660156 29.03125 C 8.230469 29.03125 8.695312 28.566406 8.695312 27.996094 L 8.695312 19.699219 C 8.695312 19.128906 8.230469 18.664062 7.660156 18.664062 Z M 6.621094 26.957031 L 2.476562 26.957031 L 2.476562 20.738281 L 6.621094 20.738281 Z M 6.621094 26.957031 " fill-opacity="1" fill-rule="nonzero"/></g></svg>