<svg xmlns="http://www.w3.org/2000/svg" xmlns:xlink="http://www.w3.org/1999/xlink" width="500" zoomAndPan="magnify" viewBox="0 0 375 324.999991" height="500" preserveAspectRatio="xMidYMid meet" version="1.0"><defs><clipPath id="08677e9b5b"><path d="M 139.304688 87.316406 L 235.355469 87.316406 L 235.355469 183.503906 L 139.304688 183.503906 Z M 139.304688 87.316406 " clip-rule="nonzero"/></clipPath><clipPath id="ede7e15453"><path d="M 187.328125 87.316406 C 160.847656 87.316406 139.304688 108.894531 139.304688 135.410156 C 139.304688 161.925781 160.847656 183.503906 187.328125 183.503906 C 213.808594 183.503906 235.355469 161.925781 235.355469 135.410156 C 235.355469 108.894531 213.808594 87.316406 187.328125 87.316406 Z M 187.328125 174.757812 C 165.664062 174.757812 148.035156 157.109375 148.035156 135.410156 C 148.035156 113.710938 165.664062 96.0625 187.328125 96.0625 C 208.992188 96.0625 226.625 113.710938 226.625 135.410156 C 226.625 157.109375 208.992188 174.757812 187.328125 174.757812 Z M 187.328125 174.757812 " clip-rule="nonzero"/></clipPath><linearGradient x1="20.804449" gradientTransform="matrix(4.36607, 0, 0, 4.37214, 47.615005, -4.49899)" y1="21.203431" x2="43.196889" gradientUnits="userSpaceOnUse" y2="42.795895" id="c1d1c06130"><stop stop-opacity="1" stop-color="rgb(65.899658%, 0%, 12.5%)" offset="0"/><stop stop-opacity="1" stop-color="rgb(65.707397%, 0%, 12.690735%)" offset="0.015625"/><stop stop-opacity="1" stop-color="rgb(65.507507%, 0%, 12.901306%)" offset="0.0234375"/><stop stop-opacity="1" stop-color="rgb(65.492249%, 0%, 13.110352%)" offset="0.03125"/><stop stop-opacity="1" stop-color="rgb(65.292358%, 0%, 13.301086%)" offset="0.0390625"/><stop stop-opacity="1" stop-color="rgb(65.098572%, 0%, 13.497925%)" offset="0.046875"/><stop stop-opacity="1" stop-color="rgb(64.910889%, 0%, 13.883972%)" offset="0.0625"/><stop stop-opacity="1" stop-color="rgb(64.710999%, 0%, 14.094543%)" offset="0.0703125"/><stop stop-opacity="1" stop-color="rgb(64.69574%, 0%, 14.306641%)" offset="0.078125"/><stop stop-opacity="1" stop-color="rgb(64.497375%, 0%, 14.498901%)" offset="0.0859375"/><stop stop-opacity="1" stop-color="rgb(64.300537%, 0%, 14.692688%)" offset="0.09375"/><stop stop-opacity="1" stop-color="rgb(64.299011%, 0%, 14.892578%)" offset="0.101562"/><stop stop-opacity="1" stop-color="rgb(64.099121%, 0%, 15.098572%)" offset="0.105469"/><stop stop-opacity="1" stop-color="rgb(63.899231%, 0%, 15.299988%)" offset="0.109375"/><stop stop-opacity="1" stop-color="rgb(63.899231%, 0%, 15.304565%)" offset="0.117187"/><stop stop-opacity="1" stop-color="rgb(63.897705%, 0%, 15.504456%)" offset="0.125"/><stop stop-opacity="1" stop-color="rgb(63.702393%, 0%, 15.699768%)" offset="0.132812"/><stop stop-opacity="1" stop-color="rgb(63.502502%, 0%, 15.890503%)" offset="0.140625"/><stop stop-opacity="1" stop-color="rgb(63.487244%, 0%, 16.101074%)" offset="0.148437"/><stop stop-opacity="1" stop-color="rgb(63.287354%, 0%, 16.31012%)" offset="0.15625"/><stop stop-opacity="1" stop-color="rgb(63.09967%, 0%, 16.500854%)" offset="0.164062"/><stop stop-opacity="1" stop-color="rgb(63.09967%, 0%, 16.699219%)" offset="0.171875"/><stop stop-opacity="1" stop-color="rgb(62.905884%, 0%, 16.896057%)" offset="0.179687"/><stop stop-opacity="1" stop-color="rgb(62.705994%, 0%, 17.086792%)" offset="0.1875"/><stop stop-opacity="1" stop-color="rgb(62.548828%, 0%, 17.436218%)" offset="0.203125"/><stop stop-opacity="1" stop-color="rgb(62.399292%, 0%, 17.793274%)" offset="0.21875"/><stop stop-opacity="1" stop-color="rgb(62.210083%, 0%, 17.993164%)" offset="0.226562"/><stop stop-opacity="1" stop-color="rgb(62.010193%, 0%, 18.199158%)" offset="0.230469"/><stop stop-opacity="1" stop-color="rgb(61.999512%, 0%, 18.399048%)" offset="0.234375"/><stop stop-opacity="1" stop-color="rgb(61.993408%, 0%, 18.403625%)" offset="0.242187"/><stop stop-opacity="1" stop-color="rgb(61.793518%, 0%, 18.603516%)" offset="0.25"/><stop stop-opacity="1" stop-color="rgb(61.599731%, 0%, 18.989563%)" offset="0.265625"/><stop stop-opacity="1" stop-color="rgb(61.399841%, 0%, 19.20166%)" offset="0.269531"/><stop stop-opacity="1" stop-color="rgb(61.199951%, 0%, 19.221497%)" offset="0.273437"/><stop stop-opacity="1" stop-color="rgb(61.199951%, 0%, 19.410706%)" offset="0.28125"/><stop stop-opacity="1" stop-color="rgb(61.196899%, 0%, 19.60144%)" offset="0.289062"/><stop stop-opacity="1" stop-color="rgb(61.000061%, 0%, 19.798279%)" offset="0.296875"/><stop stop-opacity="1" stop-color="rgb(60.801697%, 0%, 20.184326%)" offset="0.3125"/><stop stop-opacity="1" stop-color="rgb(60.598755%, 0%, 20.394897%)" offset="0.316406"/><stop stop-opacity="1" stop-color="rgb(60.398865%, 0%, 20.414734%)" offset="0.320312"/><stop stop-opacity="1" stop-color="rgb(60.398865%, 0%, 20.606995%)" offset="0.328125"/><stop stop-opacity="1" stop-color="rgb(60.205078%, 0%, 20.993042%)" offset="0.34375"/><stop stop-opacity="1" stop-color="rgb(60.005188%, 0%, 21.192932%)" offset="0.351562"/><stop stop-opacity="1" stop-color="rgb(59.988403%, 0%, 21.398926%)" offset="0.355469"/><stop stop-opacity="1" stop-color="rgb(59.979248%, 0%, 21.598816%)" offset="0.359375"/><stop stop-opacity="1" stop-color="rgb(59.788513%, 0%, 21.603394%)" offset="0.367187"/><stop stop-opacity="1" stop-color="rgb(59.599304%, 0%, 21.803284%)" offset="0.375"/><stop stop-opacity="1" stop-color="rgb(59.408569%, 0%, 22.189331%)" offset="0.390625"/><stop stop-opacity="1" stop-color="rgb(59.20105%, 0%, 22.540283%)" offset="0.40625"/><stop stop-opacity="1" stop-color="rgb(58.992004%, 0%, 22.7005%)" offset="0.414062"/><stop stop-opacity="1" stop-color="rgb(58.799744%, 0%, 22.898865%)" offset="0.421875"/><stop stop-opacity="1" stop-color="rgb(58.612061%, 0%, 23.283386%)" offset="0.4375"/><stop stop-opacity="1" stop-color="rgb(58.41217%, 0%, 23.493958%)" offset="0.445312"/><stop stop-opacity="1" stop-color="rgb(58.399963%, 0%, 23.707581%)" offset="0.453125"/><stop stop-opacity="1" stop-color="rgb(58.204651%, 0%, 24.093628%)" offset="0.46875"/><stop stop-opacity="1" stop-color="rgb(58.004761%, 0%, 24.293518%)" offset="0.476562"/><stop stop-opacity="1" stop-color="rgb(57.987976%, 0%, 24.499512%)" offset="0.480469"/><stop stop-opacity="1" stop-color="rgb(57.977295%, 0%, 24.699402%)" offset="0.484375"/><stop stop-opacity="1" stop-color="rgb(57.788086%, 0%, 24.899292%)" offset="0.488281"/><stop stop-opacity="1" stop-color="rgb(57.598877%, 0%, 25.099182%)" offset="0.492187"/><stop stop-opacity="1" stop-color="rgb(57.598877%, 0%, 25.099182%)" offset="0.5"/><stop stop-opacity="1" stop-color="rgb(57.598877%, 0%, 25.099182%)" offset="0.507812"/><stop stop-opacity="1" stop-color="rgb(57.449341%, 0%, 25.299072%)" offset="0.511719"/><stop stop-opacity="1" stop-color="rgb(57.299805%, 0%, 25.498962%)" offset="0.515625"/><stop stop-opacity="1" stop-color="rgb(57.299805%, 0%, 25.509644%)" offset="0.523438"/><stop stop-opacity="1" stop-color="rgb(57.292175%, 0%, 25.709534%)" offset="0.53125"/><stop stop-opacity="1" stop-color="rgb(57.092285%, 0%, 25.900269%)" offset="0.539062"/><stop stop-opacity="1" stop-color="rgb(56.898499%, 0%, 26.098633%)" offset="0.546875"/><stop stop-opacity="1" stop-color="rgb(56.710815%, 0%, 26.483154%)" offset="0.5625"/><stop stop-opacity="1" stop-color="rgb(56.510925%, 0%, 26.693726%)" offset="0.570312"/><stop stop-opacity="1" stop-color="rgb(56.495667%, 0%, 26.907349%)" offset="0.578125"/><stop stop-opacity="1" stop-color="rgb(56.297302%, 0%, 27.099609%)" offset="0.585938"/><stop stop-opacity="1" stop-color="rgb(56.100464%, 0%, 27.293396%)" offset="0.59375"/><stop stop-opacity="1" stop-color="rgb(56.098938%, 0%, 27.635193%)" offset="0.601562"/><stop stop-opacity="1" stop-color="rgb(55.899048%, 0%, 27.799988%)" offset="0.605469"/><stop stop-opacity="1" stop-color="rgb(55.699158%, 0%, 27.818298%)" offset="0.609375"/><stop stop-opacity="1" stop-color="rgb(55.699158%, 0%, 28.009033%)" offset="0.625"/><stop stop-opacity="1" stop-color="rgb(55.503845%, 0%, 28.395081%)" offset="0.632813"/><stop stop-opacity="1" stop-color="rgb(55.303955%, 0%, 28.594971%)" offset="0.640625"/><stop stop-opacity="1" stop-color="rgb(55.28717%, 0%, 28.799438%)" offset="0.644531"/><stop stop-opacity="1" stop-color="rgb(55.276489%, 0%, 28.999329%)" offset="0.648438"/><stop stop-opacity="1" stop-color="rgb(55.08728%, 0%, 29.005432%)" offset="0.65625"/><stop stop-opacity="1" stop-color="rgb(54.899597%, 0%, 29.205322%)" offset="0.671875"/><stop stop-opacity="1" stop-color="rgb(54.707336%, 0%, 29.59137%)" offset="0.679688"/><stop stop-opacity="1" stop-color="rgb(54.507446%, 0%, 29.79126%)" offset="0.6875"/><stop stop-opacity="1" stop-color="rgb(54.490662%, 0%, 29.998779%)" offset="0.691406"/><stop stop-opacity="1" stop-color="rgb(54.483032%, 0%, 30.198669%)" offset="0.695313"/><stop stop-opacity="1" stop-color="rgb(54.290771%, 0%, 30.201721%)" offset="0.703125"/><stop stop-opacity="1" stop-color="rgb(54.098511%, 0%, 30.401611%)" offset="0.710938"/><stop stop-opacity="1" stop-color="rgb(54.098511%, 0%, 30.59845%)" offset="0.71875"/><stop stop-opacity="1" stop-color="rgb(53.909302%, 0%, 30.787659%)" offset="0.726562"/><stop stop-opacity="1" stop-color="rgb(53.709412%, 0%, 30.996704%)" offset="0.734375"/><stop stop-opacity="1" stop-color="rgb(53.694153%, 0%, 31.208801%)" offset="0.742188"/><stop stop-opacity="1" stop-color="rgb(53.494263%, 0%, 31.399536%)" offset="0.75"/><stop stop-opacity="1" stop-color="rgb(53.29895%, 0%, 31.594849%)" offset="0.757813"/><stop stop-opacity="1" stop-color="rgb(53.29895%, 0%, 31.794739%)" offset="0.765625"/><stop stop-opacity="1" stop-color="rgb(53.09906%, 0%, 31.999207%)" offset="0.769531"/><stop stop-opacity="1" stop-color="rgb(52.89917%, 0%, 32.199097%)" offset="0.773438"/><stop stop-opacity="1" stop-color="rgb(52.89917%, 0%, 32.203674%)" offset="0.78125"/><stop stop-opacity="1" stop-color="rgb(52.897644%, 0%, 32.35321%)" offset="0.789062"/><stop stop-opacity="1" stop-color="rgb(52.700806%, 0%, 32.499695%)" offset="0.796875"/><stop stop-opacity="1" stop-color="rgb(52.502441%, 0%, 32.691956%)" offset="0.804688"/><stop stop-opacity="1" stop-color="rgb(52.49939%, 0%, 32.891846%)" offset="0.8125"/><stop stop-opacity="1" stop-color="rgb(52.348328%, 0%, 33.099365%)" offset="0.816406"/><stop stop-opacity="1" stop-color="rgb(52.198792%, 0%, 33.299255%)" offset="0.820313"/><stop stop-opacity="1" stop-color="rgb(52.198792%, 0%, 33.302307%)" offset="0.828125"/><stop stop-opacity="1" stop-color="rgb(52.198792%, 0%, 33.500671%)" offset="0.835938"/><stop stop-opacity="1" stop-color="rgb(52.005005%, 0%, 33.69751%)" offset="0.84375"/><stop stop-opacity="1" stop-color="rgb(51.805115%, 0%, 33.888245%)" offset="0.851562"/><stop stop-opacity="1" stop-color="rgb(51.789856%, 0%, 34.09729%)" offset="0.859375"/><stop stop-opacity="1" stop-color="rgb(51.589966%, 0%, 34.307861%)" offset="0.875"/><stop stop-opacity="1" stop-color="rgb(51.399231%, 0%, 34.693909%)" offset="0.882813"/><stop stop-opacity="1" stop-color="rgb(51.208496%, 0%, 34.893799%)" offset="0.890625"/><stop stop-opacity="1" stop-color="rgb(51.008606%, 0%, 35.099792%)" offset="0.894531"/><stop stop-opacity="1" stop-color="rgb(50.999451%, 0%, 35.299683%)" offset="0.898438"/><stop stop-opacity="1" stop-color="rgb(50.993347%, 0%, 35.305786%)" offset="0.90625"/><stop stop-opacity="1" stop-color="rgb(50.793457%, 0%, 35.505676%)" offset="0.921875"/><stop stop-opacity="1" stop-color="rgb(50.59967%, 0%, 35.891724%)" offset="0.929688"/><stop stop-opacity="1" stop-color="rgb(50.411987%, 0%, 36.091614%)" offset="0.9375"/><stop stop-opacity="1" stop-color="rgb(50.212097%, 0%, 36.299133%)" offset="0.941406"/><stop stop-opacity="1" stop-color="rgb(50.19989%, 0%, 36.499023%)" offset="0.945313"/><stop stop-opacity="1" stop-color="rgb(50.196838%, 0%, 36.502075%)" offset="0.953125"/><stop stop-opacity="1" stop-color="rgb(49.998474%, 0%, 36.700439%)" offset="0.960938"/><stop stop-opacity="1" stop-color="rgb(49.80011%, 0%, 36.897278%)" offset="0.96875"/><stop stop-opacity="1" stop-color="rgb(49.798584%, 0%, 37.088013%)" offset="0.976562"/><stop stop-opacity="1" stop-color="rgb(49.598694%, 0%, 37.295532%)" offset="0.980469"/><stop stop-opacity="1" stop-color="rgb(49.398804%, 0%, 37.313843%)" offset="0.984375"/><stop stop-opacity="1" stop-color="rgb(49.398804%, 0%, 37.45575%)" offset="1"/></linearGradient><clipPath id="1207137957"><path d="M 161.132812 104.605469 L 213.527344 104.605469 L 213.527344 166.015625 L 161.132812 166.015625 Z M 161.132812 104.605469 " clip-rule="nonzero"/></clipPath><clipPath id="36b9209b18"><path d="M 211.410156 118.546875 L 189.578125 105.429688 C 188.195312 104.605469 186.46875 104.605469 185.085938 105.429688 L 163.253906 118.546875 C 161.9375 119.332031 161.132812 120.753906 161.132812 122.292969 L 161.132812 148.527344 C 161.132812 150.066406 161.9375 151.484375 163.25 152.273438 L 185.082031 165.390625 C 185.773438 165.804688 186.550781 166.015625 187.328125 166.015625 C 188.105469 166.015625 188.882812 165.804688 189.578125 165.390625 L 211.410156 152.273438 C 212.722656 151.484375 213.527344 150.066406 213.527344 148.527344 L 213.527344 122.292969 C 213.527344 120.753906 212.722656 119.332031 211.410156 118.546875 Z M 187.328125 114.273438 L 200.671875 122.292969 L 187.328125 130.3125 L 173.988281 122.292969 Z M 169.867188 130.015625 L 182.964844 137.882812 L 182.964844 153.917969 L 169.867188 146.046875 Z M 191.695312 153.921875 L 191.695312 137.890625 L 204.792969 130.019531 L 204.792969 146.050781 Z M 191.695312 153.921875 " clip-rule="nonzero"/></clipPath><linearGradient x1="25.370894" gradientTransform="matrix(4.36607, 0, 0, 4.37214, 47.615005, -4.49899)" y1="25.606898" x2="38.607585" gradientUnits="userSpaceOnUse" y2="38.370565" id="37d5eb3988"><stop stop-opacity="1" stop-color="rgb(62.399292%, 0%, 17.599487%)" offset="0"/><stop stop-opacity="1" stop-color="rgb(62.399292%, 0%, 17.599487%)" offset="0.015625"/><stop stop-opacity="1" stop-color="rgb(62.399292%, 0%, 17.698669%)" offset="0.0234375"/><stop stop-opacity="1" stop-color="rgb(62.39624%, 0%, 17.901611%)" offset="0.03125"/><stop stop-opacity="1" stop-color="rgb(62.197876%, 0%, 18.200684%)" offset="0.046875"/><stop stop-opacity="1" stop-color="rgb(62.001038%, 0%, 18.397522%)" offset="0.0625"/><stop stop-opacity="1" stop-color="rgb(61.901855%, 0%, 18.496704%)" offset="0.0703125"/><stop stop-opacity="1" stop-color="rgb(61.701965%, 0%, 18.696594%)" offset="0.078125"/><stop stop-opacity="1" stop-color="rgb(61.599731%, 0%, 18.798828%)" offset="0.09375"/><stop stop-opacity="1" stop-color="rgb(61.599731%, 0%, 18.899536%)" offset="0.101562"/><stop stop-opacity="1" stop-color="rgb(61.595154%, 0%, 19.104004%)" offset="0.109375"/><stop stop-opacity="1" stop-color="rgb(61.395264%, 0%, 19.404602%)" offset="0.125"/><stop stop-opacity="1" stop-color="rgb(61.199951%, 0%, 19.599915%)" offset="0.140625"/><stop stop-opacity="1" stop-color="rgb(61.199951%, 0%, 19.699097%)" offset="0.148438"/><stop stop-opacity="1" stop-color="rgb(61.195374%, 0%, 19.898987%)" offset="0.15625"/><stop stop-opacity="1" stop-color="rgb(60.997009%, 0%, 19.999695%)" offset="0.171875"/><stop stop-opacity="1" stop-color="rgb(60.800171%, 0%, 20.193481%)" offset="0.1875"/><stop stop-opacity="1" stop-color="rgb(60.700989%, 0%, 20.491028%)" offset="0.195312"/><stop stop-opacity="1" stop-color="rgb(60.501099%, 0%, 20.697021%)" offset="0.203125"/><stop stop-opacity="1" stop-color="rgb(60.398865%, 0%, 20.799255%)" offset="0.21875"/><stop stop-opacity="1" stop-color="rgb(60.398865%, 0%, 20.899963%)" offset="0.226562"/><stop stop-opacity="1" stop-color="rgb(60.394287%, 0%, 21.099854%)" offset="0.234375"/><stop stop-opacity="1" stop-color="rgb(60.194397%, 0%, 21.199036%)" offset="0.25"/><stop stop-opacity="1" stop-color="rgb(59.999084%, 0%, 21.394348%)" offset="0.265625"/><stop stop-opacity="1" stop-color="rgb(59.899902%, 0%, 21.69342%)" offset="0.273438"/><stop stop-opacity="1" stop-color="rgb(59.700012%, 0%, 21.897888%)" offset="0.28125"/><stop stop-opacity="1" stop-color="rgb(59.599304%, 0%, 22.192383%)" offset="0.3125"/><stop stop-opacity="1" stop-color="rgb(59.501648%, 0%, 22.393799%)" offset="0.320312"/><stop stop-opacity="1" stop-color="rgb(59.301758%, 0%, 22.399902%)" offset="0.328125"/><stop stop-opacity="1" stop-color="rgb(59.199524%, 0%, 22.547913%)" offset="0.34375"/><stop stop-opacity="1" stop-color="rgb(59.09729%, 0%, 22.798157%)" offset="0.351562"/><stop stop-opacity="1" stop-color="rgb(58.8974%, 0%, 22.999573%)" offset="0.359375"/><stop stop-opacity="1" stop-color="rgb(58.799744%, 0%, 23.098755%)" offset="0.375"/><stop stop-opacity="1" stop-color="rgb(58.799744%, 0%, 23.295593%)" offset="0.390625"/><stop stop-opacity="1" stop-color="rgb(58.699036%, 0%, 23.493958%)" offset="0.398438"/><stop stop-opacity="1" stop-color="rgb(58.499146%, 0%, 23.501587%)" offset="0.40625"/><stop stop-opacity="1" stop-color="rgb(58.399963%, 0%, 23.701477%)" offset="0.421875"/><stop stop-opacity="1" stop-color="rgb(58.204651%, 0%, 23.898315%)" offset="0.4375"/><stop stop-opacity="1" stop-color="rgb(58.004761%, 0%, 23.997498%)" offset="0.445312"/><stop stop-opacity="1" stop-color="rgb(57.998657%, 0%, 24.198914%)" offset="0.453125"/><stop stop-opacity="1" stop-color="rgb(57.998657%, 0%, 24.497986%)" offset="0.46875"/><stop stop-opacity="1" stop-color="rgb(57.798767%, 0%, 24.789429%)" offset="0.472656"/><stop stop-opacity="1" stop-color="rgb(57.598877%, 0%, 24.887085%)" offset="0.476562"/><stop stop-opacity="1" stop-color="rgb(57.598877%, 0%, 24.992371%)" offset="0.484375"/><stop stop-opacity="1" stop-color="rgb(57.598877%, 0%, 25.099182%)" offset="0.5"/><stop stop-opacity="1" stop-color="rgb(57.598877%, 0%, 25.099182%)" offset="0.515625"/><stop stop-opacity="1" stop-color="rgb(57.519531%, 0%, 25.205994%)" offset="0.523438"/><stop stop-opacity="1" stop-color="rgb(57.369995%, 0%, 25.408936%)" offset="0.530212"/><stop stop-opacity="1" stop-color="rgb(57.299805%, 0%, 25.506592%)" offset="0.53125"/><stop stop-opacity="1" stop-color="rgb(57.299805%, 0%, 25.701904%)" offset="0.546875"/><stop stop-opacity="1" stop-color="rgb(57.104492%, 0%, 25.897217%)" offset="0.5625"/><stop stop-opacity="1" stop-color="rgb(56.904602%, 0%, 25.996399%)" offset="0.570313"/><stop stop-opacity="1" stop-color="rgb(56.898499%, 0%, 26.196289%)" offset="0.578125"/><stop stop-opacity="1" stop-color="rgb(56.898499%, 0%, 26.298523%)" offset="0.59375"/><stop stop-opacity="1" stop-color="rgb(56.797791%, 0%, 26.399231%)" offset="0.601562"/><stop stop-opacity="1" stop-color="rgb(56.5979%, 0%, 26.605225%)" offset="0.609375"/><stop stop-opacity="1" stop-color="rgb(56.498718%, 0%, 26.904297%)" offset="0.625"/><stop stop-opacity="1" stop-color="rgb(56.303406%, 0%, 27.099609%)" offset="0.640625"/><stop stop-opacity="1" stop-color="rgb(56.103516%, 0%, 27.198792%)" offset="0.648437"/><stop stop-opacity="1" stop-color="rgb(56.098938%, 0%, 27.398682%)" offset="0.65625"/><stop stop-opacity="1" stop-color="rgb(55.905151%, 0%, 27.644348%)" offset="0.6875"/><stop stop-opacity="1" stop-color="rgb(55.705261%, 0%, 27.893066%)" offset="0.695312"/><stop stop-opacity="1" stop-color="rgb(55.697632%, 0%, 28.097534%)" offset="0.703125"/><stop stop-opacity="1" stop-color="rgb(55.500793%, 0%, 28.199768%)" offset="0.71875"/><stop stop-opacity="1" stop-color="rgb(55.302429%, 0%, 28.300476%)" offset="0.726562"/><stop stop-opacity="1" stop-color="rgb(55.299377%, 0%, 28.500366%)" offset="0.734375"/><stop stop-opacity="1" stop-color="rgb(55.297852%, 0%, 28.599548%)" offset="0.75"/><stop stop-opacity="1" stop-color="rgb(55.102539%, 0%, 28.794861%)" offset="0.765625"/><stop stop-opacity="1" stop-color="rgb(54.902649%, 0%, 29.093933%)" offset="0.773438"/><stop stop-opacity="1" stop-color="rgb(54.89502%, 0%, 29.298401%)" offset="0.78125"/><stop stop-opacity="1" stop-color="rgb(54.696655%, 0%, 29.399109%)" offset="0.796875"/><stop stop-opacity="1" stop-color="rgb(54.499817%, 0%, 29.592896%)" offset="0.8125"/><stop stop-opacity="1" stop-color="rgb(54.496765%, 0%, 29.795837%)" offset="0.828125"/><stop stop-opacity="1" stop-color="rgb(54.299927%, 0%, 29.998779%)" offset="0.84375"/><stop stop-opacity="1" stop-color="rgb(54.101562%, 0%, 30.297852%)" offset="0.851563"/><stop stop-opacity="1" stop-color="rgb(54.093933%, 0%, 30.500793%)" offset="0.859375"/><stop stop-opacity="1" stop-color="rgb(53.894043%, 0%, 30.599976%)" offset="0.875"/><stop stop-opacity="1" stop-color="rgb(53.69873%, 0%, 30.795288%)" offset="0.890625"/><stop stop-opacity="1" stop-color="rgb(53.695679%, 0%, 30.99823%)" offset="0.90625"/><stop stop-opacity="1" stop-color="rgb(53.497314%, 0%, 31.201172%)" offset="0.921875"/><stop stop-opacity="1" stop-color="rgb(53.300476%, 0%, 31.591797%)" offset="0.9375"/><stop stop-opacity="1" stop-color="rgb(53.295898%, 0%, 31.794739%)" offset="0.953125"/><stop stop-opacity="1" stop-color="rgb(53.09906%, 0%, 31.999207%)" offset="0.96875"/><stop stop-opacity="1" stop-color="rgb(52.896118%, 0%, 32.200623%)" offset="0.984375"/><stop stop-opacity="1" stop-color="rgb(52.693176%, 0%, 32.35321%)" offset="1"/></linearGradient><clipPath id="9193528903"><path d="M 65.078125 4.160156 L 309.578125 4.160156 L 309.578125 266.574219 L 65.078125 266.574219 Z M 65.078125 4.160156 " clip-rule="nonzero"/></clipPath><clipPath id="d9e47ab4cd"><path d="M 307.460938 99.808594 C 308.777344 99.019531 309.578125 97.601562 309.578125 96.0625 L 309.578125 74.199219 C 309.578125 72.660156 308.777344 71.238281 307.460938 70.453125 L 285.632812 57.335938 C 284.246094 56.511719 282.523438 56.511719 281.140625 57.335938 L 261.527344 69.121094 L 213.527344 41.082031 L 213.527344 21.734375 C 213.527344 20.195312 212.722656 18.773438 211.410156 17.988281 L 189.578125 4.871094 C 188.195312 4.042969 186.46875 4.042969 185.085938 4.871094 L 163.253906 17.988281 C 161.9375 18.773438 161.132812 20.195312 161.132812 21.734375 L 161.132812 41.082031 L 113.136719 69.121094 L 93.523438 57.335938 C 92.140625 56.511719 90.414062 56.511719 89.03125 57.335938 L 67.203125 70.453125 C 65.882812 71.238281 65.078125 72.660156 65.078125 74.199219 L 65.078125 96.0625 C 65.078125 97.601562 65.882812 99.019531 67.195312 99.808594 L 86.910156 111.652344 L 86.910156 159.167969 L 67.195312 171.011719 C 65.882812 171.800781 65.078125 173.21875 65.078125 174.757812 L 65.078125 196.621094 C 65.078125 198.160156 65.882812 199.578125 67.195312 200.367188 L 89.027344 213.484375 C 89.722656 213.898438 90.5 214.109375 91.277344 214.109375 C 92.054688 214.109375 92.832031 213.898438 93.523438 213.484375 L 113.136719 201.699219 L 161.132812 229.738281 L 161.132812 249.085938 C 161.132812 250.625 161.9375 252.046875 163.25 252.832031 L 185.082031 265.949219 C 185.773438 266.363281 186.550781 266.574219 187.328125 266.574219 C 188.105469 266.574219 188.882812 266.363281 189.578125 265.949219 L 211.410156 252.832031 C 212.722656 252.046875 213.527344 250.625 213.527344 249.085938 L 213.527344 229.738281 L 261.523438 201.699219 L 281.132812 213.484375 C 281.828125 213.898438 282.605469 214.109375 283.382812 214.109375 C 284.160156 214.109375 284.9375 213.898438 285.632812 213.484375 L 307.460938 200.367188 C 308.777344 199.578125 309.578125 198.160156 309.578125 196.621094 L 309.578125 174.757812 C 309.578125 173.21875 308.777344 171.800781 307.460938 171.011719 L 287.75 159.167969 L 287.75 111.652344 Z M 165.46875 48.675781 L 182.964844 59.1875 L 182.964844 70.046875 C 160.828125 71.519531 141.707031 84.015625 130.992188 102.128906 L 117.472656 93.636719 L 117.472656 76.714844 Z M 257.1875 76.714844 L 257.1875 93.632812 L 243.640625 102.089844 C 232.925781 83.996094 213.8125 71.519531 191.695312 70.046875 L 191.695312 59.1875 L 209.191406 48.675781 Z M 279.015625 159.167969 L 261.605469 169.628906 L 247.675781 160.886719 C 250.988281 153.046875 252.820312 144.4375 252.820312 135.410156 C 252.820312 126.359375 250.984375 117.738281 247.65625 109.886719 L 261.597656 101.183594 L 279.015625 111.652344 Z M 187.328125 235.242188 L 173.988281 227.226562 L 187.328125 219.207031 L 200.671875 227.226562 Z M 187.328125 192.246094 C 156.035156 192.246094 130.570312 166.75 130.570312 135.410156 C 130.570312 104.070312 156.035156 78.570312 187.328125 78.570312 C 218.625 78.570312 244.089844 104.070312 244.089844 135.410156 C 244.089844 166.75 218.625 192.246094 187.328125 192.246094 Z M 113.054688 169.628906 L 95.640625 159.167969 L 95.640625 111.652344 L 113.054688 101.1875 L 126.980469 109.933594 C 123.671875 117.773438 121.839844 126.382812 121.839844 135.410156 C 121.839844 144.4375 123.671875 153.046875 126.980469 160.886719 Z M 95.640625 89.792969 L 108.742188 81.921875 L 108.742188 93.582031 L 95.640625 101.453125 Z M 265.917969 81.921875 L 279.015625 89.792969 L 279.015625 101.453125 L 265.917969 93.582031 Z M 204.792969 41.121094 L 191.695312 48.988281 L 191.695312 37.324219 L 204.792969 29.457031 Z M 182.964844 37.324219 L 182.964844 48.984375 L 169.867188 41.117188 L 169.867188 29.457031 Z M 104.617188 174.757812 L 91.277344 182.777344 L 77.933594 174.757812 L 91.277344 166.742188 Z M 117.472656 177.179688 L 130.992188 168.691406 C 141.703125 186.800781 160.828125 199.300781 182.964844 200.773438 L 182.964844 211.632812 L 165.46875 222.144531 L 117.472656 194.105469 Z M 209.191406 222.144531 L 191.695312 211.632812 L 191.695312 200.773438 C 213.832031 199.300781 232.949219 186.804688 243.664062 168.691406 L 257.1875 177.179688 L 257.1875 194.105469 Z M 283.382812 182.777344 L 270.039062 174.757812 L 283.382812 166.742188 L 296.726562 174.757812 Z M 287.75 101.457031 L 287.75 89.796875 L 300.847656 81.925781 L 300.847656 93.585938 Z M 283.382812 66.179688 L 296.726562 74.199219 L 283.382812 82.21875 L 270.039062 74.199219 Z M 187.328125 13.714844 L 200.671875 21.734375 L 187.328125 29.753906 L 173.988281 21.734375 Z M 91.277344 66.179688 L 104.617188 74.199219 L 91.277344 82.21875 L 77.933594 74.199219 Z M 73.8125 81.921875 L 86.910156 89.792969 L 86.910156 101.453125 L 73.8125 93.582031 Z M 73.8125 182.480469 L 86.910156 190.351562 L 86.910156 202.011719 L 73.8125 194.140625 Z M 95.640625 202.015625 L 95.640625 190.355469 L 108.742188 182.484375 L 108.742188 194.144531 Z M 169.867188 234.945312 L 182.964844 242.816406 L 182.964844 254.476562 L 169.867188 246.605469 Z M 191.695312 254.480469 L 191.695312 242.820312 L 204.792969 234.949219 L 204.792969 246.609375 Z M 265.917969 182.480469 L 279.015625 190.351562 L 279.015625 202.011719 L 265.917969 194.140625 Z M 287.75 202.015625 L 287.75 190.355469 L 300.847656 182.484375 L 300.847656 194.144531 Z M 287.75 202.015625 " clip-rule="nonzero"/></clipPath><linearGradient x1="2.491548" gradientTransform="matrix(4.36607, 0, 0, 4.37214, 47.615005, -4.49899)" y1="3.544564" x2="61.499182" gradientUnits="userSpaceOnUse" y2="60.445174" id="1d04557251"><stop stop-opacity="1" stop-color="rgb(74.099731%, 0%, 0%)" offset="0"/><stop stop-opacity="1" stop-color="rgb(74.099731%, 0%, 0%)" offset="0.125"/><stop stop-opacity="1" stop-color="rgb(73.899841%, 0%, 0.389099%)" offset="0.128906"/><stop stop-opacity="1" stop-color="rgb(73.699951%, 0%, 0.779724%)" offset="0.132812"/><stop stop-opacity="1" stop-color="rgb(73.498535%, 0%, 0.970459%)" offset="0.136719"/><stop stop-opacity="1" stop-color="rgb(73.298645%, 0%, 1.161194%)" offset="0.140625"/><stop stop-opacity="1" stop-color="rgb(73.098755%, 0%, 1.400757%)" offset="0.144531"/><stop stop-opacity="1" stop-color="rgb(72.898865%, 0%, 1.641846%)" offset="0.148437"/><stop stop-opacity="1" stop-color="rgb(72.698975%, 0%, 2.020264%)" offset="0.152344"/><stop stop-opacity="1" stop-color="rgb(72.499084%, 0%, 2.398682%)" offset="0.15625"/><stop stop-opacity="1" stop-color="rgb(72.348022%, 0%, 2.55127%)" offset="0.164062"/><stop stop-opacity="1" stop-color="rgb(72.0047%, 0%, 2.902222%)" offset="0.167969"/><stop stop-opacity="1" stop-color="rgb(71.812439%, 0%, 3.09906%)" offset="0.171875"/><stop stop-opacity="1" stop-color="rgb(71.80481%, 0%, 3.483582%)" offset="0.175781"/><stop stop-opacity="1" stop-color="rgb(71.798706%, 0%, 3.868103%)" offset="0.179687"/><stop stop-opacity="1" stop-color="rgb(71.598816%, 0%, 4.057312%)" offset="0.183594"/><stop stop-opacity="1" stop-color="rgb(71.398926%, 0%, 4.248047%)" offset="0.1875"/><stop stop-opacity="1" stop-color="rgb(71.183777%, 0%, 4.489136%)" offset="0.191406"/><stop stop-opacity="1" stop-color="rgb(70.968628%, 0%, 4.730225%)" offset="0.195312"/><stop stop-opacity="1" stop-color="rgb(70.777893%, 0%, 5.114746%)" offset="0.199219"/><stop stop-opacity="1" stop-color="rgb(70.587158%, 0%, 5.499268%)" offset="0.203125"/><stop stop-opacity="1" stop-color="rgb(70.393372%, 0%, 5.696106%)" offset="0.207031"/><stop stop-opacity="1" stop-color="rgb(70.199585%, 0%, 5.892944%)" offset="0.210937"/><stop stop-opacity="1" stop-color="rgb(70.011902%, 0%, 6.095886%)" offset="0.214844"/><stop stop-opacity="1" stop-color="rgb(69.824219%, 0%, 6.298828%)" offset="0.21875"/><stop stop-opacity="1" stop-color="rgb(69.633484%, 0%, 6.677246%)" offset="0.222656"/><stop stop-opacity="1" stop-color="rgb(69.442749%, 0%, 7.055664%)" offset="0.226562"/><stop stop-opacity="1" stop-color="rgb(69.219971%, 0%, 7.290649%)" offset="0.230469"/><stop stop-opacity="1" stop-color="rgb(68.998718%, 0%, 7.527161%)" offset="0.234375"/><stop stop-opacity="1" stop-color="rgb(68.989563%, 0%, 7.672119%)" offset="0.242187"/><stop stop-opacity="1" stop-color="rgb(68.789673%, 0%, 8.207703%)" offset="0.246094"/><stop stop-opacity="1" stop-color="rgb(68.598938%, 0%, 8.598328%)" offset="0.25"/><stop stop-opacity="1" stop-color="rgb(68.399048%, 0%, 8.789062%)" offset="0.253906"/><stop stop-opacity="1" stop-color="rgb(68.199158%, 0%, 8.979797%)" offset="0.257812"/><stop stop-opacity="1" stop-color="rgb(67.999268%, 0%, 9.188843%)" offset="0.261719"/><stop stop-opacity="1" stop-color="rgb(67.799377%, 0%, 9.399414%)" offset="0.265625"/><stop stop-opacity="1" stop-color="rgb(67.648315%, 0%, 9.799194%)" offset="0.269531"/><stop stop-opacity="1" stop-color="rgb(67.498779%, 0%, 10.198975%)" offset="0.273438"/><stop stop-opacity="1" stop-color="rgb(67.298889%, 0%, 10.411072%)" offset="0.277344"/><stop stop-opacity="1" stop-color="rgb(67.098999%, 0%, 10.623169%)" offset="0.28125"/><stop stop-opacity="1" stop-color="rgb(66.899109%, 0%, 10.813904%)" offset="0.285156"/><stop stop-opacity="1" stop-color="rgb(66.699219%, 0%, 11.004639%)" offset="0.289062"/><stop stop-opacity="1" stop-color="rgb(66.505432%, 0%, 11.395264%)" offset="0.292969"/><stop stop-opacity="1" stop-color="rgb(66.311646%, 0%, 11.785889%)" offset="0.296875"/><stop stop-opacity="1" stop-color="rgb(66.305542%, 0%, 11.976624%)" offset="0.304688"/><stop stop-opacity="1" stop-color="rgb(66.099548%, 0%, 12.333679%)" offset="0.308594"/><stop stop-opacity="1" stop-color="rgb(65.899658%, 0%, 12.5%)" offset="0.3125"/><stop stop-opacity="1" stop-color="rgb(65.682983%, 0%, 12.89978%)" offset="0.316406"/><stop stop-opacity="1" stop-color="rgb(65.467834%, 0%, 13.299561%)" offset="0.320312"/><stop stop-opacity="1" stop-color="rgb(65.2771%, 0%, 13.505554%)" offset="0.324219"/><stop stop-opacity="1" stop-color="rgb(65.087891%, 0%, 13.711548%)" offset="0.328125"/><stop stop-opacity="1" stop-color="rgb(64.892578%, 0%, 13.905334%)" offset="0.335938"/><stop stop-opacity="1" stop-color="rgb(64.511108%, 0%, 14.486694%)" offset="0.339844"/><stop stop-opacity="1" stop-color="rgb(64.324951%, 0%, 14.874268%)" offset="0.34375"/><stop stop-opacity="1" stop-color="rgb(64.134216%, 0%, 15.065002%)" offset="0.351562"/><stop stop-opacity="1" stop-color="rgb(63.720703%, 0%, 15.4953%)" offset="0.355469"/><stop stop-opacity="1" stop-color="rgb(63.499451%, 0%, 15.736389%)" offset="0.359375"/><stop stop-opacity="1" stop-color="rgb(63.490295%, 0%, 16.117859%)" offset="0.363281"/><stop stop-opacity="1" stop-color="rgb(63.48114%, 0%, 16.499329%)" offset="0.367188"/><stop stop-opacity="1" stop-color="rgb(63.290405%, 0%, 16.699219%)" offset="0.371094"/><stop stop-opacity="1" stop-color="rgb(63.09967%, 0%, 16.899109%)" offset="0.375"/><stop stop-opacity="1" stop-color="rgb(62.89978%, 0%, 17.098999%)" offset="0.378906"/><stop stop-opacity="1" stop-color="rgb(62.69989%, 0%, 17.298889%)" offset="0.382812"/><stop stop-opacity="1" stop-color="rgb(62.548828%, 0%, 17.630005%)" offset="0.386719"/><stop stop-opacity="1" stop-color="rgb(62.399292%, 0%, 17.961121%)" offset="0.390625"/><stop stop-opacity="1" stop-color="rgb(62.199402%, 0%, 18.202209%)" offset="0.394531"/><stop stop-opacity="1" stop-color="rgb(61.999512%, 0%, 18.443298%)" offset="0.398438"/><stop stop-opacity="1" stop-color="rgb(61.799622%, 0%, 18.632507%)" offset="0.402344"/><stop stop-opacity="1" stop-color="rgb(61.599731%, 0%, 18.823242%)" offset="0.40625"/><stop stop-opacity="1" stop-color="rgb(61.399841%, 0%, 19.210815%)" offset="0.410156"/><stop stop-opacity="1" stop-color="rgb(61.199951%, 0%, 19.599915%)" offset="0.414062"/><stop stop-opacity="1" stop-color="rgb(61.006165%, 0%, 19.792175%)" offset="0.421875"/><stop stop-opacity="1" stop-color="rgb(60.804749%, 0%, 20.191956%)" offset="0.425781"/><stop stop-opacity="1" stop-color="rgb(60.798645%, 0%, 20.399475%)" offset="0.429688"/><stop stop-opacity="1" stop-color="rgb(60.598755%, 0%, 20.773315%)" offset="0.433594"/><stop stop-opacity="1" stop-color="rgb(60.398865%, 0%, 21.148682%)" offset="0.4375"/><stop stop-opacity="1" stop-color="rgb(60.183716%, 0%, 21.389771%)" offset="0.441406"/><stop stop-opacity="1" stop-color="rgb(59.968567%, 0%, 21.630859%)" offset="0.445312"/><stop stop-opacity="1" stop-color="rgb(59.777832%, 0%, 21.820068%)" offset="0.453125"/><stop stop-opacity="1" stop-color="rgb(59.393311%, 0%, 22.3526%)" offset="0.457031"/><stop stop-opacity="1" stop-color="rgb(59.199524%, 0%, 22.694397%)" offset="0.460938"/><stop stop-opacity="1" stop-color="rgb(59.011841%, 0%, 22.883606%)" offset="0.46875"/><stop stop-opacity="1" stop-color="rgb(58.633423%, 0%, 23.286438%)" offset="0.472656"/><stop stop-opacity="1" stop-color="rgb(58.442688%, 0%, 23.498535%)" offset="0.476562"/><stop stop-opacity="1" stop-color="rgb(58.21991%, 0%, 23.898315%)" offset="0.480469"/><stop stop-opacity="1" stop-color="rgb(57.998657%, 0%, 24.299622%)" offset="0.484375"/><stop stop-opacity="1" stop-color="rgb(57.989502%, 0%, 24.508667%)" offset="0.488281"/><stop stop-opacity="1" stop-color="rgb(57.980347%, 0%, 24.717712%)" offset="0.492187"/><stop stop-opacity="1" stop-color="rgb(57.789612%, 0%, 24.908447%)" offset="0.5"/><stop stop-opacity="1" stop-color="rgb(57.449341%, 0%, 25.489807%)" offset="0.503906"/><stop stop-opacity="1" stop-color="rgb(57.299805%, 0%, 25.880432%)" offset="0.507812"/><stop stop-opacity="1" stop-color="rgb(57.098389%, 0%, 26.071167%)" offset="0.511719"/><stop stop-opacity="1" stop-color="rgb(56.898499%, 0%, 26.261902%)" offset="0.515625"/><stop stop-opacity="1" stop-color="rgb(56.698608%, 0%, 26.501465%)" offset="0.519531"/><stop stop-opacity="1" stop-color="rgb(56.498718%, 0%, 26.742554%)" offset="0.523437"/><stop stop-opacity="1" stop-color="rgb(56.298828%, 0%, 27.120972%)" offset="0.527344"/><stop stop-opacity="1" stop-color="rgb(56.098938%, 0%, 27.49939%)" offset="0.53125"/><stop stop-opacity="1" stop-color="rgb(55.899048%, 0%, 27.648926%)" offset="0.535156"/><stop stop-opacity="1" stop-color="rgb(55.699158%, 0%, 27.799988%)" offset="0.539062"/><stop stop-opacity="1" stop-color="rgb(55.505371%, 0%, 27.992249%)" offset="0.546875"/><stop stop-opacity="1" stop-color="rgb(55.305481%, 0%, 28.392029%)" offset="0.550781"/><stop stop-opacity="1" stop-color="rgb(55.299377%, 0%, 28.599548%)" offset="0.554687"/><stop stop-opacity="1" stop-color="rgb(55.099487%, 0%, 28.973389%)" offset="0.558594"/><stop stop-opacity="1" stop-color="rgb(54.899597%, 0%, 29.348755%)" offset="0.5625"/><stop stop-opacity="1" stop-color="rgb(54.682922%, 0%, 29.589844%)" offset="0.566406"/><stop stop-opacity="1" stop-color="rgb(54.467773%, 0%, 29.830933%)" offset="0.570312"/><stop stop-opacity="1" stop-color="rgb(54.283142%, 0%, 30.020142%)" offset="0.578125"/><stop stop-opacity="1" stop-color="rgb(53.901672%, 0%, 30.601501%)" offset="0.582031"/><stop stop-opacity="1" stop-color="rgb(53.70636%, 0%, 30.992126%)" offset="0.585937"/><stop stop-opacity="1" stop-color="rgb(53.515625%, 0%, 31.182861%)" offset="0.59375"/><stop stop-opacity="1" stop-color="rgb(53.134155%, 0%, 31.585693%)" offset="0.597656"/><stop stop-opacity="1" stop-color="rgb(52.94342%, 0%, 31.799316%)" offset="0.601562"/><stop stop-opacity="1" stop-color="rgb(52.720642%, 0%, 32.148743%)" offset="0.605469"/><stop stop-opacity="1" stop-color="rgb(52.49939%, 0%, 32.499695%)" offset="0.609375"/><stop stop-opacity="1" stop-color="rgb(52.49176%, 0%, 32.70874%)" offset="0.613281"/><stop stop-opacity="1" stop-color="rgb(52.485657%, 0%, 32.917786%)" offset="0.617187"/><stop stop-opacity="1" stop-color="rgb(52.342224%, 0%, 33.108521%)" offset="0.625"/><stop stop-opacity="1" stop-color="rgb(51.998901%, 0%, 33.68988%)" offset="0.628906"/><stop stop-opacity="1" stop-color="rgb(51.799011%, 0%, 34.080505%)" offset="0.632812"/><stop stop-opacity="1" stop-color="rgb(51.599121%, 0%, 34.27124%)" offset="0.636719"/><stop stop-opacity="1" stop-color="rgb(51.399231%, 0%, 34.461975%)" offset="0.640625"/><stop stop-opacity="1" stop-color="rgb(51.199341%, 0%, 34.701538%)" offset="0.644531"/><stop stop-opacity="1" stop-color="rgb(50.999451%, 0%, 34.942627%)" offset="0.648438"/><stop stop-opacity="1" stop-color="rgb(50.799561%, 0%, 35.321045%)" offset="0.652344"/><stop stop-opacity="1" stop-color="rgb(50.59967%, 0%, 35.699463%)" offset="0.65625"/><stop stop-opacity="1" stop-color="rgb(50.39978%, 0%, 35.902405%)" offset="0.660156"/><stop stop-opacity="1" stop-color="rgb(50.19989%, 0%, 36.105347%)" offset="0.664062"/><stop stop-opacity="1" stop-color="rgb(50.006104%, 0%, 36.302185%)" offset="0.667969"/><stop stop-opacity="1" stop-color="rgb(49.812317%, 0%, 36.499023%)" offset="0.671875"/><stop stop-opacity="1" stop-color="rgb(49.804688%, 0%, 36.883545%)" offset="0.675781"/><stop stop-opacity="1" stop-color="rgb(49.798584%, 0%, 37.268066%)" offset="0.679687"/><stop stop-opacity="1" stop-color="rgb(49.598694%, 0%, 37.414551%)" offset="0.683594"/><stop stop-opacity="1" stop-color="rgb(49.398804%, 0%, 37.561035%)" offset="0.6875"/><stop stop-opacity="1" stop-color="rgb(49.183655%, 0%, 37.796021%)" offset="0.691406"/><stop stop-opacity="1" stop-color="rgb(48.968506%, 0%, 38.031006%)" offset="0.695312"/><stop stop-opacity="1" stop-color="rgb(48.783875%, 0%, 38.414001%)" offset="0.699219"/><stop stop-opacity="1" stop-color="rgb(48.599243%, 0%, 38.798523%)" offset="0.703125"/><stop stop-opacity="1" stop-color="rgb(48.402405%, 0%, 38.995361%)" offset="0.707031"/><stop stop-opacity="1" stop-color="rgb(48.205566%, 0%, 39.193726%)" offset="0.710938"/><stop stop-opacity="1" stop-color="rgb(48.014832%, 0%, 39.396667%)" offset="0.714844"/><stop stop-opacity="1" stop-color="rgb(47.824097%, 0%, 39.599609%)" offset="0.71875"/><stop stop-opacity="1" stop-color="rgb(47.677612%, 0%, 39.976501%)" offset="0.722656"/><stop stop-opacity="1" stop-color="rgb(47.532654%, 0%, 40.354919%)" offset="0.726562"/><stop stop-opacity="1" stop-color="rgb(47.315979%, 0%, 40.596008%)" offset="0.730469"/><stop stop-opacity="1" stop-color="rgb(47.099304%, 0%, 40.837097%)" offset="0.734375"/><stop stop-opacity="1" stop-color="rgb(47.090149%, 0%, 41.027832%)" offset="0.742187"/><stop stop-opacity="1" stop-color="rgb(46.890259%, 0%, 41.609192%)" offset="0.746094"/><stop stop-opacity="1" stop-color="rgb(46.699524%, 0%, 41.999817%)" offset="0.75"/><stop stop-opacity="1" stop-color="rgb(46.499634%, 0%, 42.190552%)" offset="0.753906"/><stop stop-opacity="1" stop-color="rgb(46.299744%, 0%, 42.381287%)" offset="0.757812"/><stop stop-opacity="1" stop-color="rgb(46.099854%, 0%, 42.539978%)" offset="0.761719"/><stop stop-opacity="1" stop-color="rgb(45.899963%, 0%, 42.698669%)" offset="0.765625"/><stop stop-opacity="1" stop-color="rgb(45.698547%, 0%, 43.09845%)" offset="0.769531"/><stop stop-opacity="1" stop-color="rgb(45.498657%, 0%, 43.499756%)" offset="0.773438"/><stop stop-opacity="1" stop-color="rgb(45.298767%, 0%, 43.711853%)" offset="0.777344"/><stop stop-opacity="1" stop-color="rgb(45.098877%, 0%, 43.92395%)" offset="0.78125"/><stop stop-opacity="1" stop-color="rgb(44.898987%, 0%, 44.114685%)" offset="0.785156"/><stop stop-opacity="1" stop-color="rgb(44.699097%, 0%, 44.30542%)" offset="0.789062"/><stop stop-opacity="1" stop-color="rgb(44.50531%, 0%, 44.696045%)" offset="0.792969"/><stop stop-opacity="1" stop-color="rgb(44.311523%, 0%, 45.08667%)" offset="0.796875"/><stop stop-opacity="1" stop-color="rgb(44.30542%, 0%, 45.277405%)" offset="0.804687"/><stop stop-opacity="1" stop-color="rgb(44.099426%, 0%, 45.683289%)" offset="0.808594"/><stop stop-opacity="1" stop-color="rgb(43.899536%, 0%, 45.899963%)" offset="0.8125"/><stop stop-opacity="1" stop-color="rgb(43.682861%, 0%, 46.299744%)" offset="0.816406"/><stop stop-opacity="1" stop-color="rgb(43.467712%, 0%, 46.699524%)" offset="0.820312"/><stop stop-opacity="1" stop-color="rgb(43.283081%, 0%, 46.905518%)" offset="0.824219"/><stop stop-opacity="1" stop-color="rgb(43.099976%, 0%, 47.111511%)" offset="0.828125"/><stop stop-opacity="1" stop-color="rgb(42.901611%, 0%, 47.305298%)" offset="0.832031"/><stop stop-opacity="1" stop-color="rgb(42.704773%, 0%, 47.499084%)" offset="0.835937"/><stop stop-opacity="1" stop-color="rgb(42.56134%, 0%, 47.836304%)" offset="0.839844"/><stop stop-opacity="1" stop-color="rgb(42.417908%, 0%, 48.175049%)" offset="0.84375"/><stop stop-opacity="1" stop-color="rgb(42.230225%, 0%, 48.364258%)" offset="0.851562"/><stop stop-opacity="1" stop-color="rgb(42.001343%, 0%, 48.796082%)" offset="0.855469"/><stop stop-opacity="1" stop-color="rgb(41.96167%, 0%, 49.03717%)" offset="0.859375"/><stop stop-opacity="1" stop-color="rgb(41.770935%, 0%, 49.417114%)" offset="0.863281"/><stop stop-opacity="1" stop-color="rgb(41.5802%, 0%, 49.798584%)" offset="0.867187"/><stop stop-opacity="1" stop-color="rgb(41.389465%, 0%, 49.998474%)" offset="0.871094"/><stop stop-opacity="1" stop-color="rgb(41.19873%, 0%, 50.19989%)" offset="0.875"/><stop stop-opacity="1" stop-color="rgb(40.99884%, 0%, 50.39978%)" offset="0.878906"/><stop stop-opacity="1" stop-color="rgb(40.79895%, 0%, 50.59967%)" offset="0.882812"/><stop stop-opacity="1" stop-color="rgb(40.59906%, 0%, 50.98114%)" offset="0.886719"/><stop stop-opacity="1" stop-color="rgb(40.39917%, 0%, 51.36261%)" offset="0.890625"/><stop stop-opacity="1" stop-color="rgb(40.19928%, 0%, 51.580811%)" offset="0.894531"/><stop stop-opacity="1" stop-color="rgb(39.99939%, 0%, 51.799011%)" offset="0.898437"/><stop stop-opacity="1" stop-color="rgb(39.99939%, 0%, 51.799011%)" offset="0.90625"/><stop stop-opacity="1" stop-color="rgb(39.99939%, 0%, 51.799011%)" offset="0.9375"/><stop stop-opacity="1" stop-color="rgb(39.99939%, 0%, 51.799011%)" offset="1"/></linearGradient><clipPath id="bd16d1924c"><path d="M 149.175781 97 L 223.425781 97 L 223.425781 173 L 149.175781 173 Z M 149.175781 97 " clip-rule="nonzero"/></clipPath><clipPath id="d66ba60c03"><path d="M 223.125 123.824219 C 223.199219 147.449219 220.425781 153.523438 216.824219 158.101562 C 213.226562 162.675781 208.050781 166.800781 202.726562 169.199219 C 197.398438 171.601562 190.800781 172.800781 185.023438 172.425781 C 179.25 172.050781 172.875 170.101562 167.925781 167.101562 C 162.976562 164.101562 158.25 159.375 155.25 154.425781 C 152.25 149.476562 150.300781 143.023438 149.925781 137.25 C 149.550781 131.476562 150.75 124.949219 153.148438 119.625 C 155.550781 114.300781 159.601562 109.050781 164.175781 105.449219 C 168.75 101.851562 174.898438 99.148438 180.601562 98.101562 C 186.300781 97.050781 192.976562 97.5 198.523438 99.226562 C 204.074219 100.949219 213.824219 108.449219 213.824219 108.449219 " clip-rule="nonzero"/></clipPath><clipPath id="925a24eef8"><path d="M 154 100.164062 L 219.933594 100.164062 L 219.933594 166.164062 L 154 166.164062 Z M 154 100.164062 " clip-rule="nonzero"/></clipPath><clipPath id="b66d30165e"><path d="M 162.863281 131.222656 L 154.515625 139.566406 L 157.273438 142.285156 L 164.453125 135.101562 L 171.40625 135.101562 L 171.40625 143.992188 L 163.640625 151.757812 L 163.640625 166.164062 L 167.523438 166.164062 L 167.523438 153.390625 L 171.988281 148.925781 C 172.160156 149.804688 172.40625 150.667969 172.71875 151.507812 C 173.035156 152.347656 173.414062 153.160156 173.859375 153.941406 C 174.304688 154.71875 174.808594 155.460938 175.375 156.15625 C 175.9375 156.855469 176.554688 157.503906 177.226562 158.101562 C 177.894531 158.699219 178.609375 159.242188 179.367188 159.722656 C 180.125 160.207031 180.914062 160.625 181.738281 160.980469 C 182.566406 161.335938 183.414062 161.621094 184.285156 161.839844 C 185.15625 162.058594 186.039062 162.203125 186.933594 162.28125 C 187.828125 162.207031 188.714844 162.0625 189.585938 161.84375 C 190.457031 161.628906 191.304688 161.34375 192.132812 160.988281 C 192.957031 160.632812 193.75 160.214844 194.507812 159.730469 C 195.265625 159.25 195.976562 158.707031 196.648438 158.109375 C 197.316406 157.511719 197.933594 156.863281 198.5 156.164062 C 199.066406 155.464844 199.570312 154.726562 200.015625 153.945312 C 200.460938 153.164062 200.839844 152.351562 201.152344 151.511719 C 201.464844 150.667969 201.707031 149.804688 201.882812 148.925781 L 206.34375 153.390625 L 206.34375 166.164062 L 210.226562 166.164062 L 210.226562 151.757812 L 202.464844 143.992188 L 202.464844 135.101562 L 209.453125 135.101562 L 216.632812 142.285156 L 219.390625 139.566406 L 211.042969 131.222656 L 202.464844 131.222656 L 202.464844 124.386719 L 212.167969 116.625 L 212.167969 105.984375 L 208.285156 105.984375 L 208.285156 114.761719 L 201.996094 119.808594 C 201.574219 118.0625 200.867188 116.441406 199.882812 114.941406 C 198.894531 113.441406 197.683594 112.152344 196.25 111.070312 L 198.582031 108.742188 L 198.582031 100.164062 L 194.699219 100.164062 L 194.699219 107.113281 L 192.757812 109.089844 C 190.894531 108.320312 188.953125 107.929688 186.933594 107.925781 C 184.929688 107.929688 183 108.320312 181.148438 109.089844 L 179.167969 107.113281 L 179.167969 100.164062 L 175.285156 100.164062 L 175.285156 108.742188 L 177.65625 111.070312 C 176.222656 112.152344 175.011719 113.441406 174.023438 114.941406 C 173.039062 116.441406 172.332031 118.0625 171.910156 119.808594 L 165.582031 114.761719 L 165.582031 105.984375 L 161.699219 105.984375 L 161.699219 116.625 L 171.40625 124.386719 L 171.40625 131.222656 Z M 175.285156 144.808594 L 175.285156 132.191406 C 175.285156 131.871094 175.316406 131.558594 175.378906 131.246094 C 175.441406 130.933594 175.535156 130.628906 175.65625 130.335938 C 175.777344 130.039062 175.925781 129.761719 176.105469 129.496094 C 176.28125 129.230469 176.484375 128.984375 176.707031 128.761719 C 176.933594 128.535156 177.179688 128.332031 177.445312 128.15625 C 177.707031 127.980469 177.988281 127.828125 178.28125 127.707031 C 178.578125 127.585938 178.878906 127.492188 179.191406 127.433594 C 179.503906 127.371094 179.820312 127.339844 180.140625 127.339844 C 180.457031 127.339844 180.773438 127.371094 181.085938 127.433594 C 181.398438 127.492188 181.703125 127.585938 181.996094 127.707031 C 182.292969 127.828125 182.570312 127.980469 182.835938 128.15625 C 183.101562 128.332031 183.347656 128.535156 183.570312 128.761719 C 183.796875 128.984375 183.996094 129.230469 184.175781 129.496094 C 184.351562 129.761719 184.5 130.039062 184.625 130.335938 C 184.746094 130.628906 184.835938 130.933594 184.898438 131.246094 C 184.960938 131.558594 184.992188 131.871094 184.992188 132.191406 L 184.992188 158.125 C 184.292969 157.898438 183.617188 157.617188 182.964844 157.28125 C 182.308594 156.945312 181.683594 156.5625 181.089844 156.128906 C 180.496094 155.699219 179.941406 155.222656 179.417969 154.703125 C 178.898438 154.183594 178.421875 153.628906 177.992188 153.035156 C 177.558594 152.441406 177.171875 151.816406 176.839844 151.164062 C 176.503906 150.507812 176.222656 149.832031 175.992188 149.132812 C 175.761719 148.4375 175.589844 147.726562 175.46875 147 C 175.351562 146.273438 175.289062 145.542969 175.285156 144.808594 Z M 198.582031 144.808594 C 198.578125 145.542969 198.515625 146.273438 198.398438 147 C 198.28125 147.726562 198.105469 148.4375 197.875 149.132812 C 197.648438 149.832031 197.363281 150.507812 197.027344 151.164062 C 196.695312 151.816406 196.308594 152.441406 195.878906 153.035156 C 195.445312 153.628906 194.96875 154.183594 194.449219 154.703125 C 193.929688 155.222656 193.371094 155.699219 192.777344 156.128906 C 192.183594 156.5625 191.558594 156.945312 190.902344 157.28125 C 190.25 157.617188 189.574219 157.898438 188.875 158.125 L 188.875 132.191406 C 188.875 131.871094 188.90625 131.558594 188.96875 131.246094 C 189.03125 130.933594 189.121094 130.628906 189.246094 130.335938 C 189.367188 130.039062 189.515625 129.761719 189.691406 129.496094 C 189.871094 129.230469 190.070312 128.984375 190.296875 128.761719 C 190.523438 128.535156 190.765625 128.332031 191.03125 128.15625 C 191.296875 127.980469 191.578125 127.828125 191.871094 127.707031 C 192.164062 127.585938 192.46875 127.492188 192.78125 127.433594 C 193.09375 127.371094 193.410156 127.339844 193.726562 127.339844 C 194.046875 127.339844 194.363281 127.371094 194.675781 127.433594 C 194.988281 127.492188 195.289062 127.585938 195.585938 127.707031 C 195.878906 127.828125 196.160156 127.980469 196.425781 128.15625 C 196.6875 128.332031 196.933594 128.535156 197.160156 128.761719 C 197.386719 128.984375 197.585938 129.230469 197.761719 129.496094 C 197.941406 129.761719 198.089844 130.039062 198.210938 130.335938 C 198.332031 130.628906 198.425781 130.933594 198.488281 131.246094 C 198.550781 131.558594 198.582031 131.871094 198.582031 132.191406 Z M 186.933594 111.808594 C 187.699219 111.808594 188.457031 111.882812 189.207031 112.03125 C 189.957031 112.183594 190.683594 112.402344 191.390625 112.695312 C 192.097656 112.988281 192.769531 113.347656 193.40625 113.773438 C 194.039062 114.195312 194.628906 114.679688 195.167969 115.21875 C 195.710938 115.761719 196.191406 116.351562 196.617188 116.984375 C 197.042969 117.621094 197.402344 118.292969 197.695312 119 C 197.988281 119.707031 198.207031 120.433594 198.355469 121.183594 C 198.507812 121.933594 198.582031 122.691406 198.582031 123.457031 L 198.582031 124.933594 C 197.117188 123.9375 195.5 123.445312 193.726562 123.457031 C 192.40625 123.464844 191.148438 123.757812 189.957031 124.335938 C 188.765625 124.914062 187.757812 125.722656 186.933594 126.757812 C 186.597656 126.332031 186.226562 125.9375 185.820312 125.582031 C 185.410156 125.226562 184.972656 124.910156 184.503906 124.636719 C 184.035156 124.363281 183.546875 124.136719 183.039062 123.953125 C 182.527344 123.773438 182.003906 123.640625 181.46875 123.554688 C 180.933594 123.472656 180.394531 123.4375 179.851562 123.457031 C 179.3125 123.472656 178.777344 123.539062 178.246094 123.65625 C 177.71875 123.777344 177.207031 123.941406 176.707031 124.15625 C 176.210938 124.371094 175.734375 124.628906 175.285156 124.933594 L 175.285156 123.457031 C 175.285156 122.691406 175.363281 121.933594 175.511719 121.183594 C 175.660156 120.433594 175.878906 119.707031 176.171875 119 C 176.464844 118.292969 176.824219 117.621094 177.25 116.984375 C 177.675781 116.351562 178.15625 115.761719 178.699219 115.21875 C 179.238281 114.679688 179.828125 114.195312 180.464844 113.773438 C 181.097656 113.347656 181.769531 112.988281 182.476562 112.695312 C 183.183594 112.402344 183.910156 112.183594 184.660156 112.03125 C 185.410156 111.882812 186.167969 111.808594 186.933594 111.808594 Z M 186.933594 111.808594 " clip-rule="nonzero"/></clipPath></defs><path fill="#bd0000" d="M 53.164062 272.636719 L 2.53125 272.636719 L 2.53125 282.761719 L 22.785156 282.761719 L 22.785156 323.269531 L 32.910156 323.269531 L 32.910156 282.761719 L 53.164062 282.761719 Z M 53.164062 272.636719 " fill-opacity="1" fill-rule="nonzero"/><path fill="#660084" d="M 192.359375 282.761719 C 192.359375 277.191406 187.804688 272.636719 182.234375 272.636719 L 141.726562 272.636719 L 141.726562 323.269531 L 151.855469 323.269531 L 151.855469 303.015625 L 157.804688 303.015625 L 176.539062 321.75 C 177.550781 322.761719 178.816406 323.269531 180.207031 323.269531 L 192.359375 323.269531 L 192.359375 313.144531 L 182.234375 313.144531 L 172.105469 303.015625 L 182.234375 303.015625 C 187.804688 303.015625 192.359375 298.457031 192.359375 292.890625 Z M 182.234375 282.761719 L 182.234375 292.890625 L 151.855469 292.890625 L 151.855469 282.761719 Z M 182.234375 282.761719 " fill-opacity="1" fill-rule="nonzero"/><path fill="#000000" d="M 39.964844 301.953125 L 37.050781 322.648438 C 40.199219 322.648438 42.183594 322.53125 43 322.355469 C 43.8125 322.125 44.398438 321.773438 44.804688 321.308594 C 45.273438 320.78125 45.5625 319.964844 45.796875 318.917969 C 45.972656 318.160156 46.203125 316.703125 46.496094 314.488281 L 47.894531 304.402344 C 48.011719 303.644531 48.128906 303.175781 48.1875 302.945312 C 48.304688 302.59375 48.417969 302.359375 48.652344 302.246094 C 48.828125 302.128906 49.0625 302.011719 49.351562 302.011719 C 49.644531 301.953125 50.226562 301.953125 51.101562 301.953125 L 61.011719 301.953125 C 63.460938 301.953125 65.035156 301.894531 65.792969 301.835938 C 67.015625 301.71875 67.890625 301.429688 68.414062 300.960938 C 69 300.496094 69.40625 299.679688 69.699219 298.570312 C 69.929688 297.753906 70.164062 296.179688 70.515625 293.792969 L 48.128906 293.792969 C 46.144531 293.792969 44.804688 293.847656 43.988281 293.964844 C 43.054688 294.082031 42.296875 294.433594 41.832031 294.957031 C 41.367188 295.421875 40.957031 296.296875 40.667969 297.582031 C 40.550781 298.28125 40.316406 299.738281 39.964844 301.953125 Z M 39.964844 301.953125 " fill-opacity="1" fill-rule="nonzero"/><path fill="#000000" d="M 96.742188 293.734375 L 74.183594 293.734375 L 74.183594 294.722656 C 74.183594 296.238281 74.242188 297.40625 74.242188 298.105469 C 74.359375 299.386719 74.589844 300.261719 74.941406 300.785156 C 75.347656 301.3125 76.046875 301.660156 77.097656 301.835938 C 77.796875 301.894531 79.253906 301.953125 81.351562 301.953125 L 94.179688 301.953125 C 94.121094 302.59375 94.0625 303.003906 94.003906 303.234375 C 94.003906 303.46875 93.945312 303.644531 93.828125 303.761719 C 93.710938 303.875 93.539062 303.992188 93.304688 304.050781 C 93.1875 304.050781 92.835938 304.109375 92.371094 304.109375 L 80.1875 304.109375 C 78.03125 304.109375 76.515625 304.167969 75.699219 304.285156 C 74.707031 304.402344 73.949219 304.75 73.425781 305.277344 C 72.957031 305.742188 72.550781 306.675781 72.257812 308.074219 C 72.140625 308.773438 71.910156 310.171875 71.617188 312.269531 L 71.269531 314.429688 C 70.976562 316.761719 70.800781 318.335938 70.742188 319.152344 L 70.742188 319.5 C 70.742188 320.433594 70.859375 321.074219 71.210938 321.539062 C 71.558594 321.949219 72.140625 322.242188 72.957031 322.414062 C 73.773438 322.53125 75.582031 322.648438 78.378906 322.648438 L 91.03125 322.648438 C 93.945312 322.648438 95.8125 322.53125 96.628906 322.414062 C 97.445312 322.242188 98.085938 322.007812 98.550781 321.65625 C 99.074219 321.25 99.484375 320.609375 99.71875 319.792969 C 100.007812 318.976562 100.359375 317.226562 100.707031 314.429688 L 101.523438 308.480469 L 102.457031 301.953125 C 102.75 299.855469 102.921875 298.453125 102.921875 297.753906 C 102.980469 297.40625 102.980469 297.171875 102.980469 296.9375 C 102.980469 295.714844 102.691406 294.898438 102.105469 294.492188 C 101.757812 294.199219 101.175781 294.023438 100.359375 293.90625 C 99.660156 293.792969 98.433594 293.734375 96.742188 293.734375 Z M 81.238281 312.269531 L 92.722656 312.269531 C 92.664062 312.914062 92.605469 313.320312 92.546875 313.554688 C 92.488281 313.789062 92.429688 314.019531 92.3125 314.136719 C 92.253906 314.253906 92.136719 314.3125 91.90625 314.371094 C 91.789062 314.371094 91.4375 314.429688 90.972656 314.429688 L 79.546875 314.429688 C 79.664062 313.960938 79.722656 313.613281 79.722656 313.4375 C 79.777344 312.972656 79.835938 312.679688 79.953125 312.5625 C 80.070312 312.445312 80.1875 312.328125 80.363281 312.328125 C 80.480469 312.269531 80.769531 312.269531 81.238281 312.269531 Z M 81.238281 312.269531 " fill-opacity="1" fill-rule="nonzero"/><path fill="#000000" d="M 109.796875 281.78125 L 108.6875 290 L 108.164062 293.734375 L 106.996094 301.953125 L 106.707031 304.050781 L 105.539062 312.269531 L 105.25 314.429688 L 104.082031 322.589844 C 106.648438 322.589844 108.339844 322.53125 109.15625 322.472656 C 110.4375 322.242188 111.3125 321.832031 111.835938 321.25 C 112.304688 320.667969 112.59375 319.851562 112.828125 318.683594 C 113.003906 317.925781 113.234375 316.527344 113.527344 314.429688 L 113.820312 312.269531 L 126.644531 312.269531 L 126.351562 314.429688 L 125.1875 322.589844 C 128.277344 322.589844 130.257812 322.472656 131.074219 322.296875 C 132.066406 322.066406 132.765625 321.597656 133.171875 320.898438 C 133.523438 320.316406 133.816406 319.5 133.988281 318.394531 C 134.164062 317.691406 134.398438 316.351562 134.632812 314.429688 L 134.921875 312.269531 C 134.980469 311.863281 134.980469 311.511719 134.980469 311.164062 C 134.980469 310.582031 134.921875 310.113281 134.746094 309.707031 C 134.574219 309.238281 134.339844 308.890625 133.988281 308.65625 C 133.757812 308.425781 133.40625 308.25 132.941406 308.132812 C 133.464844 307.957031 133.929688 307.722656 134.28125 307.492188 C 134.632812 307.257812 134.863281 306.964844 135.097656 306.617188 C 135.390625 306.265625 135.621094 305.859375 135.738281 305.390625 C 135.914062 304.984375 136.03125 304.519531 136.089844 304.050781 L 137.546875 293.675781 C 135.097656 293.675781 133.464844 293.734375 132.648438 293.847656 C 131.597656 293.964844 130.839844 294.199219 130.257812 294.605469 C 129.675781 295.074219 129.210938 295.890625 128.859375 297.171875 C 128.683594 297.929688 128.453125 299.503906 128.101562 301.894531 L 127.808594 304.050781 L 114.984375 304.050781 L 115.277344 301.953125 L 116.441406 293.734375 L 116.964844 290 C 117.199219 288.371094 117.316406 287.203125 117.375 286.621094 C 117.492188 285.921875 117.492188 285.394531 117.492188 284.988281 C 117.492188 284.054688 117.375 283.414062 117.023438 283.007812 C 116.734375 282.480469 116.09375 282.132812 115.042969 282.015625 C 114.285156 281.839844 112.535156 281.78125 109.796875 281.78125 Z M 109.796875 281.78125 " fill-opacity="1" fill-rule="nonzero"/><g clip-path="url(#08677e9b5b)"><g clip-path="url(#ede7e15453)"><path fill="url(#c1d1c06130)" d="M 139.304688 87.316406 L 139.304688 183.503906 L 235.355469 183.503906 L 235.355469 87.316406 Z M 139.304688 87.316406 " fill-rule="nonzero"/></g></g><g clip-path="url(#9193528903)"><g clip-path="url(#d9e47ab4cd)"><path fill="url(#1d04557251)" d="M 65.078125 4.160156 L 65.078125 266.574219 L 309.578125 266.574219 L 309.578125 4.160156 Z M 65.078125 4.160156 " fill-rule="nonzero"/></g></g><g clip-path="url(#925a24eef8)"><g clip-path="url(#b66d30165e)"><path fill="#000000" d="M 154.515625 100.164062 L 154.515625 166.164062 L 219.390625 166.164062 L 219.390625 100.164062 Z M 154.515625 100.164062 " fill-opacity="1" fill-rule="nonzero"/></g></g><path fill="#000000" d="M 207.878906 293.734375 C 205.195312 293.734375 203.449219 293.792969 202.632812 293.90625 C 201.582031 294.023438 200.765625 294.375 200.183594 294.898438 C 199.65625 295.363281 199.25 296.355469 198.957031 297.753906 C 198.84375 298.453125 198.609375 299.796875 198.257812 301.894531 L 196.511719 314.371094 C 196.21875 316.703125 196.042969 318.21875 195.984375 319.035156 L 195.984375 319.441406 C 195.984375 320.257812 196.101562 320.839844 196.335938 321.25 C 196.683594 321.773438 197.269531 322.125 198.085938 322.355469 C 198.898438 322.472656 200.414062 322.589844 202.746094 322.589844 L 224.785156 322.589844 L 224.785156 321.65625 C 224.785156 319.910156 224.785156 318.742188 224.667969 318.042969 C 224.609375 316.761719 224.375 315.945312 223.910156 315.476562 C 223.558594 315.011719 222.917969 314.71875 221.984375 314.601562 C 221.34375 314.488281 219.886719 314.429688 217.613281 314.429688 L 204.789062 314.429688 C 204.90625 313.789062 204.964844 313.378906 204.964844 313.203125 C 205.019531 312.855469 205.078125 312.621094 205.195312 312.503906 C 205.3125 312.386719 205.488281 312.328125 205.664062 312.328125 C 205.835938 312.269531 206.128906 312.269531 206.539062 312.269531 L 218.78125 312.269531 C 220.820312 312.269531 222.21875 312.214844 222.976562 312.097656 C 224.144531 311.980469 224.960938 311.628906 225.484375 311.164062 C 225.949219 310.640625 226.359375 309.824219 226.589844 308.714844 C 226.824219 307.957031 227.058594 306.441406 227.347656 304.109375 L 227.699219 301.894531 C 227.933594 300.027344 228.105469 298.804688 228.164062 298.164062 C 228.222656 297.640625 228.222656 297.230469 228.222656 296.882812 C 228.222656 295.714844 227.992188 294.898438 227.40625 294.492188 C 226.941406 294.140625 226.066406 293.90625 224.785156 293.792969 C 224.085938 293.734375 222.6875 293.734375 220.585938 293.734375 Z M 207.996094 301.953125 L 219.363281 301.953125 C 219.304688 302.59375 219.246094 303.058594 219.1875 303.292969 C 219.1875 303.527344 219.128906 303.644531 219.011719 303.761719 C 218.894531 303.875 218.664062 303.992188 218.3125 304.050781 L 206.246094 304.050781 C 206.363281 303.351562 206.421875 302.945312 206.421875 302.769531 C 206.539062 302.535156 206.59375 302.359375 206.652344 302.246094 C 206.769531 302.128906 206.886719 302.011719 207.003906 302.011719 C 207.121094 301.953125 207.46875 301.953125 207.996094 301.953125 Z M 207.996094 301.953125 " fill-opacity="1" fill-rule="nonzero"/><path fill="#000000" d="M 231.597656 301.953125 L 231.308594 304.109375 C 230.957031 306.382812 230.722656 307.898438 230.609375 308.714844 L 230.609375 309.414062 C 230.609375 310.347656 230.839844 310.988281 231.191406 311.398438 C 231.65625 311.804688 232.414062 312.097656 233.582031 312.214844 C 234.28125 312.269531 235.445312 312.328125 237.019531 312.328125 L 251.304688 312.328125 C 251.246094 312.855469 251.1875 313.203125 251.128906 313.4375 C 251.128906 313.730469 251.011719 313.960938 250.894531 314.136719 C 250.777344 314.253906 250.605469 314.3125 250.371094 314.429688 L 229.851562 314.429688 C 229.5 316.992188 229.324219 318.683594 229.324219 319.5 C 229.324219 320.375 229.441406 321.015625 229.734375 321.484375 C 230.082031 321.890625 230.609375 322.183594 231.308594 322.355469 C 232.125 322.53125 233.988281 322.648438 237.019531 322.648438 L 249.847656 322.648438 C 252.820312 322.648438 254.742188 322.53125 255.558594 322.355469 C 256.433594 322.183594 257.074219 321.832031 257.542969 321.308594 C 257.890625 320.898438 258.125 320.375 258.355469 319.558594 C 258.589844 318.742188 258.941406 316.992188 259.289062 314.429688 L 259.582031 312.328125 C 259.875 309.996094 260.046875 308.480469 260.046875 307.78125 L 260.046875 307.433594 C 260.046875 306.324219 259.875 305.566406 259.464844 305.160156 C 259.058594 304.632812 258.242188 304.34375 256.957031 304.226562 C 256.257812 304.109375 254.742188 304.109375 252.410156 304.109375 L 239.585938 304.109375 C 239.703125 303.46875 239.761719 303.058594 239.761719 302.886719 C 239.820312 302.652344 239.878906 302.476562 239.992188 302.359375 C 240.109375 302.1875 240.34375 302.070312 240.578125 302.011719 C 240.808594 301.953125 241.394531 301.953125 242.207031 301.953125 L 253.636719 301.953125 C 255.5 301.953125 256.839844 301.894531 257.542969 301.835938 C 258.355469 301.71875 258.941406 301.601562 259.40625 301.371094 C 260.222656 300.960938 260.804688 300.203125 261.15625 299.039062 C 261.445312 298.222656 261.796875 296.472656 262.148438 293.792969 L 240.519531 293.792969 C 238.417969 293.792969 236.960938 293.792969 236.144531 293.90625 C 235.097656 294.023438 234.339844 294.257812 233.8125 294.664062 C 233.230469 295.074219 232.765625 295.890625 232.472656 297.054688 C 232.238281 297.8125 231.949219 299.445312 231.597656 301.953125 Z M 231.597656 301.953125 " fill-opacity="1" fill-rule="nonzero"/><path fill="#000000" d="M 264.707031 301.894531 C 263.773438 309.007812 263.191406 313.144531 262.960938 314.371094 C 262.667969 316.527344 262.492188 317.984375 262.433594 318.742188 L 262.433594 319.441406 C 262.433594 320.257812 262.609375 320.898438 262.84375 321.367188 C 263.191406 321.832031 263.773438 322.183594 264.707031 322.355469 C 265.523438 322.472656 267.15625 322.589844 269.664062 322.589844 L 283.363281 322.589844 C 285.988281 322.589844 287.675781 322.472656 288.492188 322.355469 C 289.601562 322.125 290.359375 321.714844 290.824219 321.015625 C 291.175781 320.492188 291.464844 319.675781 291.699219 318.625 C 291.875 317.867188 292.109375 316.46875 292.398438 314.371094 L 294.148438 301.894531 C 294.5 299.679688 294.671875 298.164062 294.671875 297.464844 L 294.671875 296.882812 C 294.671875 296.007812 294.554688 295.363281 294.265625 294.957031 C 293.972656 294.492188 293.449219 294.140625 292.75 294.023438 C 291.933594 293.792969 290.125 293.734375 287.269531 293.734375 L 273.859375 293.734375 C 271.527344 293.734375 269.953125 293.734375 269.140625 293.847656 C 267.972656 293.964844 267.15625 294.316406 266.632812 294.898438 C 266.050781 295.480469 265.582031 296.648438 265.234375 298.453125 C 265.117188 299.039062 264.941406 300.203125 264.707031 301.894531 Z M 275.84375 301.894531 L 285.871094 301.894531 L 284.414062 312.269531 C 284.296875 312.972656 284.238281 313.378906 284.121094 313.613281 C 284.121094 313.84375 284.003906 314.019531 283.886719 314.136719 C 283.769531 314.253906 283.597656 314.3125 283.363281 314.371094 L 271.238281 314.371094 L 272.695312 304.050781 C 272.753906 303.703125 272.8125 303.410156 272.8125 303.292969 C 272.929688 302.769531 273.042969 302.417969 273.160156 302.300781 C 273.335938 302.128906 273.628906 302.011719 273.976562 301.953125 C 274.269531 301.894531 274.910156 301.894531 275.84375 301.894531 Z M 275.84375 301.894531 " fill-opacity="1" fill-rule="nonzero"/><path fill="#000000" d="M 309.765625 281.839844 C 307.433594 281.839844 305.800781 281.839844 304.984375 281.957031 C 304.050781 282.074219 303.292969 282.25 302.769531 282.597656 C 302.070312 283.007812 301.546875 283.824219 301.195312 285.046875 C 301.019531 285.804688 300.730469 287.4375 300.320312 290 L 297.582031 309.882812 L 295.773438 322.648438 C 298.105469 322.648438 299.679688 322.589844 300.4375 322.53125 C 301.835938 322.355469 302.828125 321.949219 303.410156 321.367188 C 303.878906 320.839844 304.226562 320.023438 304.460938 318.917969 C 304.695312 318.101562 304.925781 316.644531 305.21875 314.488281 L 307.257812 299.621094 Z M 309.765625 281.839844 " fill-opacity="1" fill-rule="nonzero"/><path fill="#000000" d="M 310.933594 293.734375 L 312.390625 304.285156 L 313.847656 314.429688 C 314.199219 316.761719 314.488281 318.335938 314.605469 319.152344 C 314.898438 320.082031 315.1875 320.78125 315.539062 321.25 C 316.003906 321.773438 316.648438 322.125 317.519531 322.355469 C 318.335938 322.53125 320.261719 322.648438 323.292969 322.648438 L 328.773438 322.648438 C 331.164062 322.648438 332.738281 322.53125 333.554688 322.414062 C 334.484375 322.242188 335.125 321.890625 335.59375 321.425781 C 336.058594 320.957031 336.351562 320.199219 336.585938 319.207031 C 336.816406 318.394531 337.050781 316.820312 337.402344 314.429688 L 339.148438 302.011719 C 339.5 299.5625 339.675781 297.988281 339.675781 297.289062 L 339.675781 296.882812 C 339.675781 295.832031 339.5 295.074219 339.089844 294.664062 C 338.683594 294.199219 337.867188 293.964844 336.644531 293.847656 C 335.941406 293.734375 334.835938 293.734375 333.203125 293.734375 L 332.039062 293.734375 L 330.636719 303.527344 L 329.414062 312.328125 C 329.355469 313.03125 329.296875 313.4375 329.179688 313.671875 C 329.121094 313.902344 329.0625 314.019531 328.949219 314.136719 C 328.832031 314.253906 328.714844 314.3125 328.480469 314.371094 C 328.246094 314.371094 327.839844 314.429688 327.140625 314.429688 L 322.125 314.429688 L 320.378906 301.894531 C 320.144531 299.855469 319.910156 298.511719 319.738281 297.8125 C 319.503906 296.355469 319.035156 295.363281 318.453125 294.839844 C 317.988281 294.316406 317.113281 293.964844 315.832031 293.847656 C 315.074219 293.734375 313.441406 293.734375 310.933594 293.734375 Z M 310.933594 293.734375 " fill-opacity="1" fill-rule="nonzero"/><path fill="#000000" d="M 352.726562 293.734375 C 350.042969 293.734375 348.296875 293.792969 347.480469 293.90625 C 346.429688 294.023438 345.613281 294.375 345.03125 294.898438 C 344.503906 295.363281 344.097656 296.355469 343.804688 297.753906 C 343.691406 298.453125 343.457031 299.796875 343.105469 301.894531 L 341.359375 314.371094 C 341.066406 316.703125 340.890625 318.21875 340.832031 319.035156 L 340.832031 319.441406 C 340.832031 320.257812 340.949219 320.839844 341.183594 321.25 C 341.53125 321.773438 342.117188 322.125 342.933594 322.355469 C 343.746094 322.472656 345.261719 322.589844 347.59375 322.589844 L 369.632812 322.589844 L 369.632812 321.65625 C 369.632812 319.910156 369.632812 318.742188 369.515625 318.042969 C 369.457031 316.761719 369.222656 315.945312 368.757812 315.476562 C 368.40625 315.011719 367.765625 314.71875 366.832031 314.601562 C 366.191406 314.488281 364.734375 314.429688 362.460938 314.429688 L 349.636719 314.429688 C 349.753906 313.789062 349.8125 313.378906 349.8125 313.203125 C 349.867188 312.855469 349.925781 312.621094 350.042969 312.503906 C 350.160156 312.386719 350.335938 312.328125 350.511719 312.328125 C 350.683594 312.269531 350.976562 312.269531 351.386719 312.269531 L 363.628906 312.269531 C 365.667969 312.269531 367.066406 312.214844 367.824219 312.097656 C 368.992188 311.980469 369.808594 311.628906 370.332031 311.164062 C 370.796875 310.640625 371.207031 309.824219 371.4375 308.714844 C 371.671875 307.957031 371.90625 306.441406 372.195312 304.109375 L 372.546875 301.894531 C 372.78125 300.027344 372.953125 298.804688 373.011719 298.164062 C 373.070312 297.640625 373.070312 297.230469 373.070312 296.882812 C 373.070312 295.714844 372.839844 294.898438 372.253906 294.492188 C 371.789062 294.140625 370.914062 293.90625 369.632812 293.792969 C 368.933594 293.734375 367.535156 293.734375 365.433594 293.734375 Z M 352.84375 301.953125 L 364.210938 301.953125 C 364.152344 302.59375 364.09375 303.058594 364.035156 303.292969 C 364.035156 303.527344 363.976562 303.644531 363.859375 303.761719 C 363.742188 303.875 363.511719 303.992188 363.160156 304.050781 L 351.09375 304.050781 C 351.210938 303.351562 351.269531 302.945312 351.269531 302.769531 C 351.386719 302.535156 351.441406 302.359375 351.5 302.246094 C 351.617188 302.128906 351.734375 302.011719 351.851562 302.011719 C 351.96875 301.953125 352.316406 301.953125 352.84375 301.953125 Z M 352.84375 301.953125 " fill-opacity="1" fill-rule="nonzero"/></svg>